<svg width="100" height="81" viewBox="0 0 100 81" fill="none" xmlns="http://www.w3.org/2000/svg">
<g clip-path="url(#clip0_44_3183)">
<path opacity="0.1" d="M33.2459 80.9543C38.1158 80.9543 42.0637 80.2293 42.0637 79.3348C42.0637 78.4404 38.1158 77.7153 33.2459 77.7153C28.376 77.7153 24.4281 78.4404 24.4281 79.3348C24.4281 80.2293 28.376 80.9543 33.2459 80.9543Z" fill="#6C63FF"/>
<path opacity="0.1" d="M81.178 81.0002C87.2549 81.0002 92.1812 80.2752 92.1812 79.3807C92.1812 78.4863 87.2549 77.7612 81.178 77.7612C75.1011 77.7612 70.1748 78.4863 70.1748 79.3807C70.1748 80.2752 75.1011 81.0002 81.178 81.0002Z" fill="#6C63FF"/>
<path opacity="0.1" d="M1.25244 34.998H10.4367V49.3128H1.92481C1.90219 49.4597 1.88047 49.6077 1.85694 49.7557H10.4367V61.3002C10.4213 61.2951 10.4078 61.2888 10.3933 61.2826C10.1508 61.1729 9.91004 61.057 9.66933 60.9329L9.51549 60.8532C9.27417 60.7228 9.03285 60.5848 8.79153 60.4393C8.70737 60.3885 8.62321 60.3358 8.53996 60.282C7.20026 59.4238 5.98322 58.3364 4.93104 57.0574C4.90027 57.0233 4.87131 56.9871 4.84054 56.954C4.69394 56.7718 4.55006 56.5876 4.41069 56.3993L4.25685 56.1923C4.09215 55.9616 3.93288 55.7246 3.77814 55.4845C3.75551 55.4493 3.7338 55.4141 3.71027 55.381C3.08092 54.3832 2.55836 53.3027 2.15376 52.1627C2.14109 52.1286 2.13023 52.0913 2.11847 52.0592C1.99419 51.6936 1.88409 51.3245 1.78816 50.952C1.74654 50.7957 1.70672 50.6415 1.67233 50.479C1.65966 50.4314 1.6488 50.3849 1.63885 50.3383C1.12484 48.0441 1.06421 45.6609 1.06421 43.2943C1.06421 43.018 1.06421 42.7406 1.06421 42.4664C1.06421 41.5092 1.07416 40.5458 1.08864 39.5834C1.08864 39.334 1.09769 39.0856 1.10222 38.8352C1.11489 38.1998 1.13298 37.5644 1.15651 36.929C1.16194 36.7521 1.16918 36.5762 1.17733 36.4002C1.17733 36.2988 1.18185 36.1974 1.1909 36.096C1.21262 35.7276 1.23072 35.3623 1.25244 34.998Z" fill="#6C63FF"/>
<path opacity="0.1" d="M10.4368 19.0594H5.39893C6.21785 17.5936 7.11263 16.1851 8.07847 14.8414C8.82685 13.79 9.61687 12.7655 10.4368 11.7783V19.0594Z" fill="#6C63FF"/>
<path opacity="0.1" d="M10.4367 19.5024V34.555H1.28137C1.28137 34.5116 1.28771 34.4671 1.29042 34.4236C1.29857 34.3046 1.30671 34.1856 1.31576 34.0676C1.32571 33.929 1.33657 33.7893 1.34834 33.6537C1.3601 33.5181 1.37277 33.3526 1.38635 33.2025C1.39992 33.0525 1.41259 32.9003 1.42797 32.7503C1.44336 32.6002 1.45693 32.4502 1.47322 32.3012C1.48951 32.1522 1.50399 32.0011 1.52118 31.8521C1.53476 31.7279 1.54924 31.6047 1.56371 31.4806C1.58453 31.3057 1.60625 31.1297 1.62978 30.9559C1.62978 30.93 1.63611 30.9031 1.63973 30.8783C1.8049 29.6056 2.02995 28.3441 2.31391 27.0991C2.61115 25.7931 2.99071 24.5135 3.44962 23.2702C3.93735 21.9696 4.50842 20.712 5.15815 19.5076L10.4367 19.5024Z" fill="#6C63FF"/>
<path opacity="0.1" d="M12.6294 34.9965V49.3123H32.2459V34.9965H12.6294ZM12.6294 49.7541V62.0479C12.7416 62.0748 12.8529 62.1006 12.9633 62.1224C13.1135 62.1555 13.2629 62.1855 13.4158 62.2114C13.4447 62.2165 13.4746 62.2217 13.5063 62.2248C13.566 62.2362 13.6275 62.2455 13.6873 62.2548C13.8384 62.2786 13.9886 62.2983 14.1397 62.3138C14.2112 62.3221 14.2836 62.3293 14.356 62.3355L14.5307 62.3511C14.6257 62.3593 14.7198 62.3656 14.813 62.3687C14.8709 62.3687 14.9289 62.3749 14.9886 62.3769C15.0338 62.3769 15.0791 62.3769 15.1261 62.3769C15.1732 62.3769 15.2402 62.3769 15.2972 62.3769C15.375 62.3769 15.4528 62.3769 15.5297 62.3769H15.6338C15.7116 62.3769 15.7895 62.3769 15.8664 62.3687H15.8718C15.9252 62.3687 15.9795 62.3687 16.0338 62.3604C16.0489 62.3614 16.064 62.3614 16.079 62.3604C16.1243 62.3604 16.1695 62.3604 16.213 62.3531H16.2446L16.5478 62.3262C16.6473 62.3159 16.7478 62.3024 16.8492 62.29L17.0555 62.2621C17.8949 62.1276 18.725 61.9256 19.5396 61.6577C21.3693 61.0741 23.1593 60.2576 24.9882 59.6595C27.3528 58.8885 29.9654 58.5098 32.2504 59.4525V49.7541H12.6294ZM32.2459 19.0591V0.000715776C30.0982 -0.0258921 27.9564 0.261355 25.8724 0.855483C20.9051 2.28251 16.4483 5.37767 12.6294 9.33071V19.0581H13.614V19.5H12.6294V34.5546H32.2459V19.501H17.6564V19.0591H32.2459ZM57.4422 12.6215C56.2133 12.5718 54.9917 12.1268 53.8867 11.4397C51.7737 10.1255 50.086 8.09616 48.2001 6.38352C44.2816 2.81648 39.4221 0.664039 34.4367 0.130069V19.0591H62.4403L62.5099 18.9753L57.4422 12.6215ZM59.9933 12.104L62.6982 15.4983V11.2141C61.7923 11.3424 60.9987 11.6477 59.9969 12.0999L59.9933 12.104ZM62.6982 65.1006V49.7541H56.9346C56.9192 49.6889 56.9038 49.6227 56.8857 49.5565C56.9029 49.6227 56.9174 49.6889 56.9337 49.7541H34.4404V60.8526C34.6539 61.0337 34.8648 61.2241 35.0738 61.4177C35.2992 61.6246 35.5218 61.843 35.7453 62.0572L35.9706 62.2704C36.0783 62.3738 36.1869 62.4773 36.2964 62.5746C36.5136 62.776 36.7329 62.9747 36.9543 63.1707C37.0638 63.2741 37.176 63.3673 37.2873 63.4645C39.0544 65.0095 40.9185 66.4037 42.8645 67.6359C43.3007 67.9119 43.7408 68.1813 44.1848 68.4441C44.4807 68.6169 44.7785 68.7887 45.0771 68.9553C45.5259 69.2058 45.9784 69.4472 46.4345 69.6797C50.6395 71.8382 55.0859 73.3193 59.6467 74.0808C60.6596 74.2519 61.6765 74.3864 62.6973 74.4844V65.0996H62.7878L62.6982 65.1006ZM34.4404 19.501V34.5546H62.7018V19.501H34.4404ZM34.4404 34.9965V49.3123H62.7018V34.9965H34.4404ZM64.8954 11.1955V15.9743L68.3477 11.6425C67.2039 11.4314 66.0531 11.2807 64.8954 11.1903V11.1955ZM64.8954 35.0016V49.3123H92.3831V34.9965L64.8954 35.0016ZM92.2826 66.2368L92.3794 49.7541H64.8954V74.6489C66.6659 74.734 68.4391 74.7098 70.2074 74.5765H70.2382C71.0828 74.5158 71.9235 74.4275 72.7602 74.3116H72.7792C77.2434 73.7175 81.6085 72.3856 85.7381 70.3575M97.6833 37.3538C97.5802 37.0754 97.4725 36.7991 97.363 36.5259C97.1585 36.0085 96.9422 35.5056 96.7196 35.0027H94.5748V49.3123H99.9973C99.9946 45.2599 99.0977 41.1206 97.686 37.3486L97.6833 37.3538ZM94.5748 49.7593V63.9364C96.1024 62.2621 97.3928 60.3466 98.3222 58.1569C99.4398 55.5202 99.9511 52.6651 99.9927 49.7572L94.5748 49.7593ZM94.5748 30.8303V34.5556H96.5187C95.9306 33.2732 95.2826 32.0279 94.5776 30.8251L94.5748 30.8303ZM75.933 14.004C75.79 13.9419 75.647 13.8788 75.5031 13.8177C73.9856 13.1769 72.4349 12.644 70.8599 12.222L65.5768 18.8521L65.4754 18.9753L65.5433 19.0601H84.3463C81.7275 16.9988 78.9043 15.2999 75.9357 13.9988L75.933 14.004ZM84.8974 19.5062H65.2809L64.8954 19.9097V34.5546H68.2744H68.2799H92.3867V27.4609C90.206 24.4449 87.689 21.7689 84.9001 19.501L84.8974 19.5062Z" fill="#6C63FF"/>
<path opacity="0.1" d="M10.4367 27.0947V34.5548H1.28137C1.28137 34.5113 1.28771 34.4668 1.29042 34.4234C1.29857 34.3044 1.30671 34.1854 1.31576 34.0674C1.32571 33.9287 1.33657 33.789 1.34834 33.6535C1.3601 33.5179 1.37277 33.3523 1.38635 33.2023C1.39992 33.0522 1.41259 32.9001 1.42797 32.7501C1.44336 32.6 1.45693 32.45 1.47322 32.3009C1.48951 32.1519 1.50399 32.0008 1.52118 31.8518C1.53476 31.7276 1.54924 31.6045 1.56371 31.4803C1.58453 31.3054 1.60625 31.1295 1.62978 30.9557C1.62978 30.9298 1.63611 30.9029 1.63973 30.8781C1.8049 29.6054 2.02995 28.3438 2.31391 27.0989L10.4367 27.0947Z" fill="#6C63FF"/>
<path opacity="0.1" d="M1.25244 34.998H10.4367V49.3128H1.92481C1.90219 49.4597 1.88047 49.6077 1.85694 49.7557H10.4367V61.3002C10.4213 61.2951 10.4078 61.2888 10.3933 61.2826C10.1508 61.1729 9.91004 61.057 9.66933 60.9329L9.51549 60.8532C9.27417 60.7228 9.03285 60.5848 8.79153 60.4393C8.70737 60.3885 8.62321 60.3358 8.53996 60.282C7.20026 59.4238 5.98322 58.3364 4.93104 57.0574C4.90027 57.0233 4.87131 56.9871 4.84054 56.954C4.69394 56.7718 4.55006 56.5876 4.41069 56.3993L4.25685 56.1923C4.09215 55.9616 3.93288 55.7246 3.77814 55.4845C3.75551 55.4493 3.7338 55.4141 3.71027 55.381C3.08092 54.3832 2.55836 53.3027 2.15376 52.1627C2.14109 52.1286 2.13023 52.0913 2.11847 52.0592C1.99419 51.6936 1.88409 51.3245 1.78816 50.952C1.74654 50.7957 1.70672 50.6415 1.67233 50.479C1.65966 50.4314 1.6488 50.3849 1.63885 50.3383C1.12484 48.0441 1.06421 45.6609 1.06421 43.2943C1.06421 43.018 1.06421 42.7406 1.06421 42.4664C1.06421 41.5092 1.07416 40.5458 1.08864 39.5834C1.08864 39.334 1.09769 39.0856 1.10222 38.8352C1.11489 38.1998 1.13298 37.5644 1.15651 36.929C1.16194 36.7521 1.16918 36.5762 1.17733 36.4002C1.17733 36.2988 1.18185 36.1974 1.1909 36.096C1.21262 35.7276 1.23072 35.3623 1.25244 34.998Z" fill="#6C63FF"/>
<path opacity="0.1" d="M19.535 21.657V34.5551H12.6294V21.657H13.614V17.29H17.6555V21.657H19.535Z" fill="#6C63FF"/>
<path opacity="0.1" d="M19.535 34.9966H12.6303V49.3113H19.535V34.9966Z" fill="#6C63FF"/>
<path opacity="0.1" d="M12.6294 49.7554H19.535V61.6559C18.7204 61.9235 17.8904 62.1251 17.051 62.2592L16.8446 62.2882C16.7433 62.3016 16.6428 62.313 16.5433 62.3244C16.4437 62.3358 16.3406 62.344 16.2401 62.3513H16.2085C16.165 62.3513 16.118 62.3575 16.0754 62.3585H16.0293C15.975 62.3585 15.9207 62.3647 15.8664 62.3668C15.7895 62.372 15.7125 62.373 15.6338 62.374C15.6003 62.374 15.5687 62.374 15.5352 62.374C15.4573 62.374 15.3804 62.374 15.3026 62.374H15.1316C15.0854 62.374 15.0411 62.374 14.9931 62.374L14.8185 62.3668C14.728 62.3668 14.6302 62.3554 14.5361 62.3482L14.3624 62.3337L14.1461 62.3109C13.9941 62.2954 13.8429 62.2757 13.6936 62.2519L13.5126 62.223L13.4221 62.2085C13.271 62.1816 13.1217 62.1526 12.9697 62.1195C12.8583 62.0977 12.7479 62.0708 12.6357 62.045L12.6294 49.7554Z" fill="#6C63FF"/>
<path opacity="0.1" d="M62.7018 20.1338H57.0079V34.5541H62.7018V20.1338Z" fill="#6C63FF"/>
<path opacity="0.1" d="M62.7027 34.9966V49.3124H34.4404V43.1376H49.4941V46.7801H57.0079V34.9966H62.7027Z" fill="#6C63FF"/>
<path opacity="0.1" d="M62.7923 65.1038H62.7018V74.4949C61.6822 74.3962 60.6657 74.262 59.6521 74.0923C55.0891 73.3284 50.6408 71.8441 46.4345 69.6819C45.2201 69.0569 44.0304 68.3746 42.8654 67.635C40.9194 66.4022 39.0551 65.008 37.2873 63.4636C36.8433 63.0745 36.405 62.6765 35.9724 62.2694C35.6729 61.9869 35.3752 61.6972 35.0738 61.4157C34.8648 61.2222 34.6539 61.0318 34.4404 60.8496V49.7553H56.9328C56.9174 49.689 56.902 49.6228 56.8857 49.5576C56.9029 49.6228 56.9192 49.689 56.9346 49.7553H62.7018V65.0976C62.7326 65.0986 62.7624 65.1017 62.7923 65.1038Z" fill="#6C63FF"/>
<path opacity="0.1" d="M77.5519 19.0595H73.8417V17.7411H75.505V13.814C75.6492 13.874 75.7927 13.9357 75.9357 13.9992V17.7411H77.5519V19.0595Z" fill="#6C63FF"/>
<path opacity="0.1" d="M86.491 34.555H68.2763C68.2763 34.555 68.2763 34.555 68.2826 34.5602L68.2745 34.555H64.8954V20.1347H65.8528V30.7934H70.2282V24.481H73.8426V19.5024H77.5528V24.4851H81.1672V30.7976H86.491V34.555Z" fill="#6C63FF"/>
<path opacity="0.1" d="M64.8954 34.9966V49.3124H86.491V34.9966H64.8954ZM92.3532 66.1635L92.3831 54.8321H86.491V49.7615H64.8954V74.6491C66.6659 74.7341 68.4392 74.7099 70.2074 74.5766H70.2382C71.0828 74.5159 71.9235 74.4276 72.7603 74.3117H72.7793C77.2434 73.7176 81.6085 72.3857 85.7381 70.3576" fill="#6C63FF"/>
<path opacity="0.1" d="M94.9586 49.7554H99.9964C99.9521 52.6622 99.4417 55.5173 98.325 58.154C97.3956 60.3447 96.1042 62.2602 94.5785 63.9335V54.8271H94.9586V49.7554Z" fill="#6C63FF"/>
<path opacity="0.1" d="M99.9991 49.3127H94.9586V37.3491H97.6861C99.0978 41.1211 99.9946 45.2604 99.9991 49.3127Z" fill="#6C63FF"/>
<path opacity="0.1" d="M62.7027 24.1426H59.6522V28.6637H62.7027V24.1426Z" fill="#6C63FF"/>
<path opacity="0.1" d="M62.7027 33.5137H59.6522V34.5547H62.7027V33.5137Z" fill="#6C63FF"/>
<path opacity="0.1" d="M62.7027 34.9966H59.6522V38.0338H62.7027V34.9966Z" fill="#6C63FF"/>
<path opacity="0.1" d="M62.7027 42.8853H59.6522V47.4064H62.7027V42.8853Z" fill="#6C63FF"/>
<path opacity="0.1" d="M62.7027 52.2568H59.6522V56.778H62.7027V52.2568Z" fill="#6C63FF"/>
<path opacity="0.1" d="M62.7018 65.0977C62.7326 65.0977 62.7625 65.0977 62.7923 65.1039H62.7018V66.1543H59.6522V61.6279H62.7018V65.0977Z" fill="#6C63FF"/>
<path opacity="0.1" d="M62.7018 70.9976V74.4901C61.6823 74.3914 60.6657 74.2573 59.6522 74.0875V70.9976H62.7018Z" fill="#6C63FF"/>
<path opacity="0.1" d="M47.5141 48.9805H34.4404V49.3126H47.5141V48.9805Z" fill="#6C63FF"/>
<path opacity="0.1" d="M47.5141 49.7544H34.4404V51.0272H47.5141V49.7544Z" fill="#6C63FF"/>
<path opacity="0.1" d="M47.5141 55.1997H34.4404V57.2466H47.5141V55.1997Z" fill="#6C63FF"/>
<path opacity="0.1" d="M47.5132 61.4189V63.4658H37.2873C36.8433 63.0781 36.4047 62.6801 35.9715 62.2716C35.672 61.9891 35.3752 61.6994 35.0729 61.4189H47.5132Z" fill="#6C63FF"/>
<path opacity="0.1" d="M47.5132 67.6374V69.6822H46.4336C45.2204 69.0565 44.031 68.3738 42.8654 67.6343L47.5132 67.6374Z" fill="#6C63FF"/>
<path opacity="0.1" d="M72.782 36.3843H70.2083V39.3273H72.782V36.3843Z" fill="#6C63FF"/>
<path opacity="0.1" d="M17.0573 22.6719H14.4836V25.6149H17.0573V22.6719Z" fill="#6C63FF"/>
<path opacity="0.1" d="M17.0573 29.5083H14.4836V32.4513H17.0573V29.5083Z" fill="#6C63FF"/>
<path opacity="0.1" d="M17.0573 36.3442H14.4836V39.2873H17.0573V36.3442Z" fill="#6C63FF"/>
<path opacity="0.1" d="M17.0573 43.1792H14.4836V46.1222H17.0573V43.1792Z" fill="#6C63FF"/>
<path opacity="0.1" d="M17.0573 50.0151H14.4836V52.9582H17.0573V50.0151Z" fill="#6C63FF"/>
<path opacity="0.1" d="M17.0573 56.8511H14.4836V59.7941H17.0573V56.8511Z" fill="#6C63FF"/>
<path opacity="0.1" d="M82.607 36.3843H80.0333V39.3273H82.607V36.3843Z" fill="#6C63FF"/>
<path opacity="0.1" d="M72.782 43.6436H70.2083V46.5866H72.782V43.6436Z" fill="#6C63FF"/>
<path opacity="0.1" d="M82.607 43.6436H80.0333V46.5866H82.607V43.6436Z" fill="#6C63FF"/>
<path opacity="0.1" d="M72.782 50.9019H70.2083V53.8449H72.782V50.9019Z" fill="#6C63FF"/>
<path opacity="0.1" d="M82.607 50.9019H80.0333V53.8449H82.607V50.9019Z" fill="#6C63FF"/>
<path opacity="0.1" d="M72.782 58.1616H70.2083V61.1047H72.782V58.1616Z" fill="#6C63FF"/>
<path opacity="0.1" d="M82.607 58.1616H80.0333V61.1047H82.607V58.1616Z" fill="#6C63FF"/>
<path opacity="0.1" d="M72.782 65.4209H70.2083V68.3639H72.782V65.4209Z" fill="#6C63FF"/>
<path opacity="0.1" d="M82.607 65.4209H80.0333V68.3639H82.607V65.4209Z" fill="#6C63FF"/>
<path opacity="0.1" d="M70.2083 74.5771V72.6792H72.7811V74.307L70.2083 74.5771Z" fill="#6C63FF"/>
<path opacity="0.1" d="M1.62891 30.876V32.5596H10.4367V30.876H1.62891ZM2.5067 32.4541H1.78818V30.9795H2.51213L2.5067 32.4541ZM3.38359 32.4541H2.65964V30.9795H3.38359V32.4541ZM4.25868 32.4541H3.53472V30.9795H4.25868V32.4541ZM5.13557 32.4541H4.41252V30.9795H5.13647L5.13557 32.4541ZM6.01155 32.4541H5.2876V30.9795H6.01155V32.4541ZM6.88844 32.4541H6.16449V30.9795H6.88844V32.4541ZM7.76534 32.4541H7.04138V30.9795H7.76534V32.4541ZM8.64132 32.4541H7.91737V30.9795H8.64132V32.4541ZM9.51731 32.4541H8.79335V30.9795H9.51731V32.4541ZM10.3933 32.4541H9.66934V30.9795H10.3933V32.4541Z" fill="#6C63FF"/>
<path opacity="0.1" d="M1.62891 35.7749V37.4586H10.4367V35.7749H1.62891ZM2.5067 37.352H1.78818V35.8815H2.51213L2.5067 37.352ZM3.38359 37.352H2.65964V35.8815H3.38359V37.352ZM4.25868 37.352H3.53472V35.8815H4.25868V37.352ZM5.13557 37.352H4.41252V35.8815H5.13647L5.13557 37.352ZM6.01155 37.352H5.2876V35.8815H6.01155V37.352ZM6.88844 37.352H6.16449V35.8815H6.88844V37.352ZM7.76534 37.352H7.04138V35.8815H7.76534V37.352ZM8.64132 37.352H7.91737V35.8815H8.64132V37.352ZM9.51731 37.352H8.79335V35.8815H9.51731V37.352ZM10.3933 37.352H9.66934V35.8815H10.3933V37.352Z" fill="#6C63FF"/>
<path opacity="0.1" d="M1.62891 40.6758V42.3625H10.4367V40.6758H1.62891ZM2.5067 42.2529H1.78818V40.7813H2.51213L2.5067 42.2529ZM3.38359 42.2529H2.65964V40.7813H3.38359V42.2529ZM4.25868 42.2529H3.53472V40.7813H4.25868V42.2529ZM5.13557 42.2529H4.41252V40.7813H5.13647L5.13557 42.2529ZM6.01155 42.2529H5.2876V40.7813H6.01155V42.2529ZM6.88844 42.2529H6.16449V40.7813H6.88844V42.2529ZM7.76534 42.2529H7.04138V40.7813H7.76534V42.2529ZM8.64132 42.2529H7.91737V40.7813H8.64132V42.2529ZM9.51731 42.2529H8.79335V40.7813H9.51731V42.2529ZM10.3933 42.2529H9.66934V40.7813H10.3933V42.2529Z" fill="#6C63FF"/>
<path opacity="0.1" d="M1.62891 45.5767V47.2583H10.4367V45.5767H1.62891ZM2.5067 47.1537H1.78818V45.6812H2.51213L2.5067 47.1537ZM3.38359 47.1537H2.65964V45.6812H3.38359V47.1537ZM4.25868 47.1537H3.53472V45.6812H4.25868V47.1537ZM5.13557 47.1537H4.41252V45.6812H5.13647L5.13557 47.1537ZM6.01155 47.1537H5.2876V45.6812H6.01155V47.1537ZM6.88844 47.1537H6.16449V45.6812H6.88844V47.1537ZM7.76534 47.1537H7.04138V45.6812H7.76534V47.1537ZM8.64132 47.1537H7.91737V45.6812H8.64132V47.1537ZM9.51731 47.1537H8.79335V45.6812H9.51731V47.1537ZM10.3933 47.1537H9.66934V45.6812H10.3933V47.1537Z" fill="#6C63FF"/>
<path opacity="0.1" d="M1.66693 50.4766C1.70222 50.6349 1.74204 50.7932 1.78367 50.9495V50.5821H2.50762V52.0536H2.12031C2.13207 52.0878 2.14384 52.125 2.1556 52.1571H10.4367V50.4766H1.66693ZM3.38633 52.0536H2.66237V50.5821H3.38633V52.0536ZM4.26141 52.0536H3.53745V50.5821H4.26141V52.0536ZM5.1383 52.0536H4.41253V50.5821H5.13649L5.1383 52.0536ZM6.01428 52.0536H5.29033V50.5821H6.01428V52.0536ZM6.89118 52.0536H6.16722V50.5821H6.89118V52.0536ZM7.76807 52.0536H7.04411V50.5821H7.76807V52.0536ZM8.64405 52.0536H7.9201V50.5821H8.64405V52.0536ZM9.52004 52.0536H8.79608V50.5821H9.52004V52.0536ZM10.396 52.0536H9.67207V50.5821H10.396V52.0536Z" fill="#6C63FF"/>
<path opacity="0.1" d="M3.7121 55.3779C3.73472 55.411 3.75644 55.4483 3.77997 55.4814H4.25868V56.1882C4.31027 56.2586 4.36094 56.3289 4.41343 56.3952V55.4773H5.13738V56.954H4.84418C4.87314 56.9881 4.90119 57.0243 4.93468 57.0575H10.4395V55.3779H3.7121ZM6.01156 56.954H5.28761V55.4835H6.01156V56.954ZM6.88845 56.954H6.1645V55.4835H6.88845V56.954ZM7.76534 56.954H7.04139V55.4835H7.76534V56.954ZM8.64133 56.954H7.91737V55.4835H8.64133V56.954ZM9.51732 56.954H8.79336V55.4835H9.51732V56.954ZM10.3933 56.954H9.66935V55.4835H10.3933V56.954Z" fill="#6C63FF"/>
<path opacity="0.1" d="M8.54358 60.2778C8.62593 60.3316 8.71009 60.3813 8.79515 60.4351V60.3834H9.51911V60.8491L9.67295 60.9308V60.3834H10.3969V61.2785C10.4108 61.2864 10.4253 61.2926 10.4403 61.2971V60.2778H8.54358Z" fill="#6C63FF"/>
<path opacity="0.1" d="M56.8857 49.5566C56.9029 49.6229 56.9174 49.6891 56.9337 49.7543C56.9192 49.6891 56.9038 49.6229 56.8857 49.5566ZM13.6176 19.0562V19.498H17.66V19.0562H13.6176ZM56.8857 49.5566C56.9029 49.6229 56.9174 49.6891 56.9337 49.7543C56.9192 49.6891 56.9038 49.6229 56.8857 49.5566ZM56.8857 49.5566C56.9029 49.6229 56.9174 49.6891 56.9337 49.7543C56.9192 49.6891 56.9038 49.6229 56.8857 49.5566Z" fill="#6C63FF"/>
<path d="M41.7722 39.2891C41.7722 39.2891 41.4157 39.2322 41.4157 38.6382C41.4157 38.0442 41.1605 36.9349 41.1605 36.9349C41.1605 36.9297 40.9397 35.0028 40.6347 34.6965C40.3297 34.3902 39.9379 32.5917 39.9379 32.5917C39.9379 32.5917 39.8709 31.6158 39.7343 31.4058C39.5976 31.1957 39.413 30.6814 39.1406 29.9477C38.8682 29.214 37.7325 28.7059 37.7325 28.7059C37.7325 28.7059 35.6792 27.3441 35.0973 26.9001C35.0445 26.8637 34.995 26.821 34.9498 26.7729C34.8485 26.6207 34.4069 26.6176 34.4069 26.6176C34.3607 26.2844 34.3164 25.9015 34.3019 25.5549C34.3019 25.5176 34.3019 25.4804 34.2974 25.4431C34.9462 25.0045 35.4349 24.313 35.6738 23.4956C35.6847 23.4562 35.6937 23.4148 35.7037 23.3755C35.7425 23.3609 35.7783 23.3371 35.8087 23.3058C35.8391 23.2744 35.8634 23.2361 35.8801 23.1934C35.9326 23.0599 35.9335 22.9036 35.9987 22.7795C36.0747 22.6325 36.2195 22.5539 36.3335 22.4431C36.6213 22.1637 36.6955 21.6929 36.6819 21.2645C36.6729 20.9178 36.624 20.568 36.643 20.2234L36.6484 20.1365C36.6539 20.0848 36.6602 20.033 36.6683 19.9834C36.7127 19.7267 36.8095 19.4846 36.8638 19.23C36.9181 18.9754 36.9235 18.6888 36.7968 18.4694C36.6113 18.1476 36.2249 18.0834 35.8856 18.0503C35.501 18.0131 35.1571 18.0617 34.9109 17.6964C34.7957 17.5055 34.6661 17.3265 34.5236 17.1614C34.4729 17.1076 33.9806 16.764 33.9806 16.7413C33.5002 16.4868 32.9556 16.439 32.4468 16.6067C32.1916 16.6916 31.9509 16.8302 31.692 16.8996C31.1337 17.0507 30.4912 16.8872 30.017 17.2525C29.7527 17.4594 29.5944 17.7885 29.446 18.1093C29.3253 18.3735 29.2028 18.6374 29.0786 18.9009C28.8786 19.3345 28.675 19.7754 28.5908 20.2555C28.5731 20.36 28.5622 20.4658 28.5582 20.5722V20.5774C28.5582 20.6156 28.5582 20.6539 28.5582 20.6922V20.7409C28.5582 20.7771 28.5582 20.8123 28.5636 20.8443C28.5691 20.8764 28.5682 20.8868 28.5709 20.9085C28.5736 20.9302 28.5781 20.9789 28.5836 21.012C28.589 21.0451 28.5998 21.103 28.6107 21.1486C28.6152 21.1682 28.6216 21.1869 28.627 21.2055C28.636 21.2407 28.6469 21.2748 28.6587 21.309C28.665 21.3266 28.6713 21.3452 28.6786 21.3628C28.6921 21.399 28.7084 21.4342 28.7247 21.4663C28.732 21.4808 28.7374 21.4942 28.7446 21.5077C28.7699 21.5558 28.7977 21.6021 28.8279 21.6463C29.0215 21.9226 29.3066 22.0985 29.5175 22.3573C29.5175 22.3676 29.5175 22.378 29.5175 22.3873C29.5175 22.4162 29.5175 22.4442 29.5175 22.4732C29.5286 23.0501 29.6629 23.6152 29.9087 24.1193C30.1544 24.6234 30.5041 25.0512 30.9274 25.3655C30.9274 25.4048 30.9319 25.4452 30.9337 25.4845C30.9513 25.7917 30.948 26.1 30.9237 26.4065C30.8869 26.3569 30.8408 26.3174 30.7888 26.2909C30.7368 26.2644 30.6802 26.2515 30.6233 26.2534C30.5844 26.2512 30.5455 26.255 30.5075 26.2648L30.4993 26.2575V26.2668C30.3002 26.3227 30.055 26.5597 29.8206 27.2334C29.8206 27.2334 29.1075 28.1523 28.5646 28.114C28.0216 28.0757 26.647 29.0702 26.647 29.0702C26.647 29.0702 25.3058 30.0657 25.0181 31.0798C24.8572 31.6549 24.6644 32.2176 24.4407 32.7645L22.7829 36.671L22.477 39.7703C22.477 39.7703 22.6462 41.1487 22.6127 41.3587C22.5792 41.5688 23.3086 43.4636 23.3086 43.4636C23.3086 43.4636 25.7185 48.3055 26.7031 48.5539L26.7737 48.497C26.8158 48.5221 26.8605 48.5413 26.9067 48.5539L27.1094 48.3904C27.1216 48.5726 27.1164 48.7558 27.094 48.9368C26.9583 49.4149 27.1447 52.5349 27.3818 53.1465C27.6189 53.758 27.5347 61.7769 27.5347 61.7769L27.5012 62.4847C27.5012 62.4847 27.5012 62.5075 27.5094 62.5468L27.5012 62.7145L27.5257 62.7289C27.551 62.9535 27.5428 63.1813 27.5012 63.4026C27.4162 63.7131 27.3818 64.5906 27.3818 64.5906C27.3818 64.5906 26.704 69.5453 27.0252 70.5409C27.3465 71.5364 27.6198 72.6271 27.6198 72.6271C27.6198 72.6271 27.9591 73.8689 27.6361 74.081C27.313 74.2931 26.3945 74.6491 26.5836 75.1665C26.7556 75.6446 27.408 76.9257 27.5049 77.113L27.4967 77.2113L27.3637 78.8598C27.3852 79.0775 27.4369 79.2898 27.5166 79.489C27.6623 79.8481 27.9456 80.2206 28.484 80.1803C28.5745 80.173 28.6795 80.1606 28.7808 80.1451C29.7663 79.994 30.9798 79.4911 30.9798 79.4911C30.9168 79.4453 30.8591 79.3907 30.8079 79.3286C30.7595 79.2749 30.7211 79.2106 30.6951 79.1394C30.6691 79.0682 30.6561 78.9918 30.6568 78.9147C30.6713 78.6146 30.1799 77.1844 30.0577 76.8326C30.0387 76.7819 30.0288 76.7529 30.0288 76.7529C30.0288 76.7529 31.1491 75.4138 30.9627 74.2269C30.9627 74.2269 29.7229 73.399 30.131 72.9448C30.5391 72.4905 31.2685 71.1856 31.2685 71.1856C31.2685 71.1856 31.302 66.3063 31.2685 65.5778C31.2336 65.0722 31.2546 64.5635 31.331 64.0639C31.3445 63.9883 31.3608 63.9149 31.378 63.8424C31.9425 63.9388 32.5123 63.9882 33.0829 63.9904C33.2911 63.9904 33.5028 63.9904 33.7164 63.9759C33.7164 64.0449 33.7191 64.1194 33.7245 64.1994C33.7716 65.4081 33.8594 67.5274 33.9309 68.3149C34.0322 69.4439 34.5924 72.4863 34.5924 72.4863C34.5924 72.4863 33.5236 73.2707 34.7788 75.2038C34.7788 75.2038 34.7788 75.9044 34.6956 76.0058C34.6067 76.3373 34.5351 76.6745 34.4811 77.0158C34.4286 77.38 34.4069 77.7484 34.4919 77.9399C34.6956 78.3973 35.9172 78.36 35.9172 78.36L35.9471 78.3538C36.1777 78.3265 36.4108 78.3519 36.6328 78.4285C36.8548 78.505 37.0613 78.6313 37.2403 78.7998C37.7045 79.2262 39.4664 79.0388 40.4202 78.9033C40.794 78.8495 41.0437 78.7998 41.0437 78.7998C41.0558 78.7514 41.0601 78.7009 41.0564 78.6508C41.0464 78.3828 40.8627 77.795 39.6175 77.2703C39.6175 77.2703 38.4465 76.37 38.4628 75.5856H38.4384H38.3027C38.4013 75.5794 38.4646 75.5856 38.4646 75.5856C38.4646 75.5856 38.0058 73.6712 38.1932 73.516C38.3805 73.3608 37.8194 71.2394 37.8194 71.2394C37.8194 71.2394 37.4982 67.6796 37.481 67.4302C37.4817 67.2162 37.51 67.0034 37.5651 66.7989L37.481 64.8472C37.481 64.8472 37.4647 64.1984 37.481 63.9873C37.4782 63.8041 37.4652 63.6212 37.4421 63.4399C37.4339 63.3674 37.4258 63.2919 37.4167 63.2174C37.8556 63.0901 38.1407 62.9721 38.1407 62.9721L38.09 56.1785C38.4628 55.3506 38.5316 53.5345 38.5298 52.2462C38.5298 51.4183 38.4972 50.8057 38.4972 50.8057L39.0067 49.8547C39.0067 49.8547 39.1243 48.7164 38.9379 48.467C38.8556 48.3542 38.8927 48.2372 38.9606 48.141C38.9958 48.109 39.033 48.08 39.0719 48.0541C39.0719 48.0541 39.0664 48.0448 39.0601 48.0313C39.0957 47.9973 39.1335 47.9665 39.1732 47.9392C39.1732 47.9392 38.9922 47.6184 39.1542 47.4828C39.3062 47.6008 39.442 47.6898 39.5451 47.7622C39.5379 47.8378 39.5307 47.8813 39.5307 47.8813L39.5741 47.7778C39.6736 47.8419 39.7343 47.8813 39.7343 47.8813C39.7343 47.8813 40.5324 46.0631 40.5152 45.795C40.4981 45.527 41.0582 44.398 41.0582 44.398C41.0582 44.398 41.1261 43.8051 41.432 43.5567C41.7378 43.3084 41.6691 41.5088 41.6691 41.5088C41.6691 41.5088 41.7541 40.5712 41.9577 40.1884C42.1613 39.8055 41.7722 39.2891 41.7722 39.2891ZM26.5004 38.4912L26.5158 38.9248C26.4253 38.7582 26.3601 38.6382 26.3601 38.6382L26.5004 38.4912Z" fill="url(#paint0_linear_44_3183)"/>
<path d="M39.7777 47.0958L39.5823 48.0478C39.5823 48.0478 38.0167 47.1341 37.7344 45.973C37.452 44.8119 38.2068 44.3711 38.2068 44.3711L39.6655 45.0779L39.7777 47.0958Z" fill="white"/>
<path opacity="0.1" d="M39.7777 47.0958L39.5823 48.0478C39.5823 48.0478 38.0167 47.1341 37.7344 45.973C37.452 44.8119 38.2068 44.3711 38.2068 44.3711L39.6655 45.0779L39.7777 47.0958Z" fill="black"/>
<path d="M30.9917 79.4974C30.9917 79.4974 29.5437 80.1059 28.5483 80.1825C28.0198 80.2228 27.742 79.8524 27.599 79.4953C27.5209 79.2969 27.4705 79.0856 27.4497 78.8693L27.5791 77.2291L27.6479 76.3557L29.7627 75.7275L30.0623 76.7748L30.0903 76.8545C30.2107 77.2042 30.693 78.6271 30.6785 78.9241C30.678 79.0002 30.6908 79.0756 30.7163 79.1458C30.7418 79.216 30.7794 79.2797 30.827 79.3329C30.8755 79.3955 30.9309 79.4508 30.9917 79.4974Z" fill="white"/>
<path d="M40.8818 78.6636C40.8854 78.7134 40.8811 78.7635 40.8691 78.8116C40.8691 78.8116 37.7724 79.4025 37.1389 78.8116C36.9603 78.639 36.7521 78.5109 36.5277 78.4357C36.3033 78.3605 36.0676 78.3398 35.8358 78.3749C35.8358 78.3749 34.6376 78.4121 34.4377 77.961C34.3544 77.7716 34.3761 77.4042 34.4277 77.042C34.4803 76.7027 34.5504 76.3671 34.6376 76.0372L34.6856 75.9937L34.9707 75.7319L38.3081 75.6191H38.3334C38.3172 76.3994 39.4664 77.2945 39.4664 77.2945C40.6872 77.8119 40.8673 78.3966 40.8818 78.6636Z" fill="white"/>
<path opacity="0.1" d="M40.8818 78.6636C40.8849 78.7134 40.8804 78.7635 40.8682 78.8115C40.8682 78.8115 37.7724 79.4024 37.1389 78.8115C36.9604 78.6391 36.7524 78.5111 36.5282 78.4359C36.3039 78.3607 36.0684 78.3399 35.8367 78.3748C35.8367 78.3748 34.6377 78.4121 34.4386 77.9609C34.3553 77.7705 34.3761 77.4042 34.4277 77.042C34.8892 77.0948 35.6177 77.2262 35.9037 77.5397C36.3362 78.0168 37.0692 78.4928 37.519 78.5301C37.871 78.5559 39.9768 78.6325 40.8818 78.6636Z" fill="black"/>
<path opacity="0.1" d="M30.9916 79.4973C30.9916 79.4973 29.5437 80.1057 28.5483 80.1823C28.0198 80.2227 27.742 79.8522 27.5999 79.4942C27.9682 79.6359 28.4795 79.7849 28.7483 79.6483C29.0668 79.4869 30.1962 79.3824 30.8297 79.3379C30.8779 79.3982 30.9323 79.4518 30.9916 79.4973Z" fill="black"/>
<path d="M33.14 30.4624C31.9454 29.9315 30.4088 28.1775 30.7925 27.3579C30.8777 27.1511 30.9284 26.9279 30.9418 26.6997C30.9665 26.3901 30.9702 26.0787 30.9527 25.7684C30.9258 25.2602 30.8723 24.7543 30.7925 24.2534C30.7925 24.2534 34.5218 24.3497 34.3046 24.9778C34.2413 25.162 34.2313 25.4818 34.2485 25.8398C34.2657 26.1979 34.311 26.6025 34.358 26.945C34.4232 27.4148 34.4883 27.7729 34.4883 27.7729C34.4883 27.7729 34.2603 28.1382 34.1263 28.1578C33.9924 28.1775 34.8539 31.2188 33.14 30.4624Z" fill="#CF6F80"/>
<path opacity="0.1" d="M30.0876 76.8545L30.0595 76.8897C28.9446 75.3478 27.5963 77.2694 27.5963 77.2694L27.5764 77.2291L27.6451 76.3557L29.76 75.7275L30.0595 76.7748L30.0876 76.8545Z" fill="black"/>
<path opacity="0.1" d="M38.3344 75.7275C38.3344 75.7275 37.5199 75.7079 37.0855 76.1466C36.6512 76.5854 34.5517 76.2418 34.6422 76.1466C34.669 76.0995 34.6852 76.0454 34.6892 75.9894L34.9743 75.7275L38.3117 75.6147C38.3244 75.6841 38.3344 75.7275 38.3344 75.7275Z" fill="black"/>
<path d="M31.4749 63.619C31.4142 63.7905 31.3681 63.9682 31.3373 64.1498C31.2618 64.6472 31.2409 65.1533 31.2749 65.6566C31.3084 66.3809 31.2749 71.2353 31.2749 71.2353C31.2749 71.2353 30.5591 72.5299 30.16 72.9862C29.7609 73.4426 30.9744 74.2622 30.9744 74.2622C31.1554 75.4419 30.0586 76.7747 30.0586 76.7747C28.9437 75.2328 27.5954 77.1555 27.5954 77.1555C27.5954 77.1555 26.8624 75.7068 26.6796 75.1894C26.4968 74.672 27.3954 74.3139 27.7112 74.1038C28.027 73.8938 27.6958 72.6551 27.6958 72.6551C27.6958 72.6551 27.4289 71.5695 27.1121 70.5792C26.7954 69.5889 27.4614 64.659 27.4614 64.659C27.4614 64.659 27.4958 63.7835 27.5782 63.4782C27.6197 63.258 27.628 63.0312 27.6026 62.8077C27.5972 62.7321 27.5908 62.669 27.5863 62.6266C27.5818 62.5842 27.5782 62.5645 27.5782 62.5645L27.5908 62.5397L28.0433 61.5752C28.0433 61.5752 31.6921 63.0115 31.4749 63.619Z" fill="#6C63FF"/>
<path d="M38.3344 75.6138C38.3344 75.6138 37.5199 75.5941 37.0856 76.0277C36.6512 76.4613 34.5517 76.1229 34.6422 76.0277C34.7327 75.9325 34.7255 75.2278 34.7255 75.2278C33.4938 73.3051 34.5445 72.5248 34.5445 72.5248C34.5445 72.5248 33.9943 69.498 33.8947 68.3752C33.8251 67.5908 33.7391 65.4828 33.6929 64.2793C33.673 63.7619 33.6613 63.4059 33.6613 63.4059L34.6676 63.1741L34.797 63.1441L37.224 62.5874C37.224 62.5874 37.291 63.1048 37.3362 63.5281C37.3588 63.7088 37.3715 63.8909 37.3742 64.0734C37.358 64.2804 37.3742 64.9282 37.3742 64.9282L37.4566 66.8706C37.4028 67.0743 37.3751 67.2859 37.3742 67.4987C37.3905 67.746 37.7064 71.2872 37.7064 71.2872C37.7064 71.2872 38.2557 73.4003 38.0683 73.5524C37.881 73.7045 38.3344 75.6138 38.3344 75.6138Z" fill="#6C63FF"/>
<path opacity="0.1" d="M34.3046 24.9778C34.2413 25.162 34.2313 25.4818 34.2485 25.8398C33.749 26.1838 33.1748 26.3596 32.5918 26.3472C32.0088 26.3348 31.4407 26.1345 30.9527 25.7694C30.9259 25.2609 30.8724 24.7546 30.7925 24.2534C30.7925 24.2534 34.5218 24.3476 34.3046 24.9778Z" fill="black"/>
<path d="M35.7462 22.6906C35.7469 23.0635 35.6956 23.4341 35.5942 23.7885C35.3675 24.5826 34.9026 25.2595 34.2816 25.6995C33.6607 26.1395 32.9237 26.3144 32.201 26.1931C31.4782 26.0719 30.8162 25.6624 30.3319 25.037C29.8477 24.4116 29.5723 23.6105 29.5546 22.7754C29.5546 22.7465 29.5546 22.7195 29.5546 22.6906C29.5476 22.2205 29.6225 21.7536 29.7749 21.317C29.9274 20.8803 30.1543 20.4828 30.4425 20.1475C30.7307 19.8123 31.0744 19.546 31.4536 19.3642C31.8327 19.1825 32.2397 19.0889 32.6509 19.0889C33.062 19.0889 33.469 19.1825 33.8481 19.3642C34.2273 19.546 34.571 19.8123 34.8592 20.1475C35.1474 20.4828 35.3744 20.8803 35.5268 21.317C35.6793 21.7536 35.7542 22.2205 35.7471 22.6906H35.7462Z" fill="#CF6F80"/>
<path opacity="0.1" d="M33.14 30.4623C31.9454 29.9315 30.4088 28.1774 30.7925 27.3579C30.8777 27.151 30.9284 26.9278 30.9418 26.6997L32.5771 28.2364L33.5888 29.1854L34.358 26.946C34.4232 27.4158 34.4883 27.7739 34.4883 27.7739C34.4883 27.7739 34.2603 28.1391 34.1263 28.1588C33.9924 28.1785 34.8539 31.2188 33.14 30.4623Z" fill="black"/>
<path d="M37.3688 37.2539L36.0032 63.4867L34.2223 63.6202L29.6107 48.4093L30.3673 30.3506L30.5265 26.5352L32.5771 28.461L33.5898 29.4099L34.3816 27.1053L35.8539 28.5727L37.3688 37.2539Z" fill="#6C63FF"/>
<path opacity="0.1" d="M31.4749 63.619C31.4142 63.7905 31.3682 63.9683 31.3373 64.1499C30.0414 63.9211 28.7829 63.4714 27.6035 62.816L27.5791 62.8015L27.5872 62.6349L27.5918 62.548L28.0442 61.5835C28.0442 61.5835 31.6921 63.0116 31.4749 63.619Z" fill="black"/>
<path opacity="0.1" d="M34.6883 64.154C34.357 64.2184 34.0229 64.262 33.6874 64.2844C33.6675 63.767 33.6558 63.411 33.6558 63.411L34.6621 63.1792L34.6883 64.154Z" fill="black"/>
<path opacity="0.1" d="M37.3308 63.5329C36.6874 63.7244 35.6937 63.9396 34.8042 63.8051L34.7915 63.149L37.2186 62.5923C37.2186 62.5923 37.2855 63.1045 37.3308 63.5329Z" fill="black"/>
<path opacity="0.1" d="M34.7879 63.9254C31.0776 64.6498 27.6796 62.5729 27.6796 62.5729L27.7121 61.8692C27.7121 61.8692 27.7963 53.8917 27.5628 53.2801C27.3293 52.6686 27.1474 49.5672 27.2796 49.0912C27.4117 48.6152 26.7972 41.4769 26.7972 41.4769L26.6977 38.5794L23.0544 36.8916L24.6833 33.0089C24.9033 32.4646 25.0925 31.9046 25.2498 31.3325C25.533 30.3246 26.8479 29.3343 26.8479 29.3343C26.8479 29.3343 28.1963 28.345 28.7293 28.3822C29.2623 28.4195 29.9609 27.5068 29.9609 27.5068C30.4767 26.0032 30.9437 26.6841 30.9437 26.6841C30.9437 26.7555 30.9437 26.6841 30.9184 26.9066C30.7374 28.5571 33.8449 33.7726 33.8893 33.8647L34.1852 42.1082L34.4847 52.5402L34.7879 63.9254Z" fill="black"/>
<path d="M34.6883 63.9253C30.978 64.6497 27.5791 62.5728 27.5791 62.5728L27.6126 61.8691C27.6126 61.8691 27.6967 53.8916 27.4623 53.28C27.228 52.6684 27.047 49.5671 27.18 49.091C27.313 48.615 26.6977 41.4768 26.6977 41.4768L26.5972 38.5793L22.9521 36.8853L24.581 33.0026C24.8005 32.458 24.9897 31.8981 25.1475 31.3262C25.4298 30.3182 26.7456 29.3279 26.7456 29.3279C26.7456 29.3279 28.094 28.3386 28.6261 28.3759C29.1582 28.4131 29.8577 27.5004 29.8577 27.5004C30.3744 25.9968 30.9437 26.6777 30.9437 26.6777C30.9437 26.7491 30.8894 26.7812 30.9183 26.9002C31.3165 28.5011 33.7454 33.7663 33.7897 33.8584L34.0892 42.1018L34.3888 52.5339L34.6883 63.9253Z" fill="white"/>
<path opacity="0.1" d="M33.6884 34.0933C33.2893 33.9029 31.1753 31.1431 31.1753 31.1431V30.5149C31.0984 30.308 30.6414 30.4342 30.2704 30.5791L30.4297 26.7637L30.6106 26.9355C31.007 28.5353 33.6422 34.0012 33.6884 34.0933Z" fill="black"/>
<path d="M33.7888 33.8648C33.3888 33.6744 31.2749 30.9145 31.2749 30.9145V30.2864C31.198 30.0794 30.741 30.2057 30.3699 30.3506L30.5301 26.5352L30.7111 26.7069C31.1084 28.3068 33.7445 33.7738 33.7888 33.8648Z" fill="white"/>
<path opacity="0.1" d="M27.6796 47.6289C27.7293 47.6289 30.2596 47.3247 30.2596 47.3247C30.2596 47.3247 31.7916 50.7696 31.6912 51.6079C31.5907 52.4461 31.4088 53.188 30.7926 53.0566C30.1763 52.9252 27.476 53.1601 27.476 53.1601L27.6796 47.6289Z" fill="black"/>
<path d="M27.5791 47.4004C27.6289 47.4004 30.1591 47.0962 30.1591 47.0962C30.1591 47.0962 31.6903 50.5422 31.5907 51.3793C31.4912 52.2165 31.3075 52.9595 30.6921 52.8281C30.0767 52.6967 27.3755 52.9316 27.3755 52.9316L27.5791 47.4004Z" fill="white"/>
<path d="M29.4858 45.7827C29.4858 45.7827 31.8079 47.2097 31.8577 47.6454C31.9075 48.0811 30.6758 47.455 30.4098 47.3795C30.2347 47.3312 30.0564 47.2994 29.8768 47.2842L28.1022 47.3391L29.4858 45.7827Z" fill="#CF6F80"/>
<path opacity="0.1" d="M33.0404 34.2712C33.1754 34.2712 33.2848 34.1461 33.2848 33.9918C33.2848 33.8375 33.1754 33.7124 33.0404 33.7124C32.9055 33.7124 32.7961 33.8375 32.7961 33.9918C32.7961 34.1461 32.9055 34.2712 33.0404 34.2712Z" fill="black"/>
<path d="M33.0404 34.1574C33.1754 34.1574 33.2848 34.0323 33.2848 33.878C33.2848 33.7237 33.1754 33.5986 33.0404 33.5986C32.9055 33.5986 32.7961 33.7237 32.7961 33.878C32.7961 34.0323 32.9055 34.1574 33.0404 34.1574Z" fill="#3F3D56"/>
<path opacity="0.1" d="M33.4902 46.3664C33.6251 46.3664 33.7345 46.2413 33.7345 46.087C33.7345 45.9327 33.6251 45.8076 33.4902 45.8076C33.3552 45.8076 33.2458 45.9327 33.2458 46.087C33.2458 46.2413 33.3552 46.3664 33.4902 46.3664Z" fill="black"/>
<path d="M33.4902 46.2517C33.6251 46.2517 33.7345 46.1266 33.7345 45.9723C33.7345 45.818 33.6251 45.6929 33.4902 45.6929C33.3552 45.6929 33.2458 45.818 33.2458 45.9723C33.2458 46.1266 33.3552 46.2517 33.4902 46.2517Z" fill="#3F3D56"/>
<path opacity="0.1" d="M33.2839 40.3191C33.4188 40.3191 33.5282 40.194 33.5282 40.0397C33.5282 39.8853 33.4188 39.7603 33.2839 39.7603C33.1489 39.7603 33.0396 39.8853 33.0396 40.0397C33.0396 40.194 33.1489 40.3191 33.2839 40.3191Z" fill="black"/>
<path d="M33.2839 40.2053C33.4188 40.2053 33.5282 40.0802 33.5282 39.9259C33.5282 39.7716 33.4188 39.6465 33.2839 39.6465C33.1489 39.6465 33.0396 39.7716 33.0396 39.9259C33.0396 40.0802 33.1489 40.2053 33.2839 40.2053Z" fill="#3F3D56"/>
<path d="M38.9162 47.2264C38.9162 47.2264 39.0827 47.512 38.9162 47.6455C38.7497 47.779 38.9325 48.1019 38.9325 48.1019C38.9325 48.1019 38.5171 48.3803 38.6999 48.6307C38.8827 48.8811 38.7669 50.0122 38.7669 50.0122L38.2674 50.958C38.2674 50.958 38.2972 51.5675 38.2991 52.3913C38.2991 53.6765 38.233 55.4833 37.8674 56.307L37.9181 63.0655C37.9181 63.0655 36.1688 63.7961 34.7046 63.5736L34.4874 52.7286C34.4874 52.7286 34.8042 46.5786 34.9209 45.3989C34.9892 44.7865 35.017 44.169 35.0042 43.5518C35.0042 43.5518 34.9544 41.7056 34.787 40.8488C34.787 40.8488 34.606 37.1369 34.5879 36.1093C34.5797 35.6178 34.6024 34.1835 34.6277 32.8196C34.6558 31.3284 34.6874 29.9221 34.6874 29.9221L34.3571 26.9335C34.3571 26.9335 34.6874 26.8952 34.787 27.0473C34.8316 27.095 34.88 27.1376 34.9318 27.1746C35.5019 27.6154 37.5163 28.9711 37.5163 28.9711C37.5163 28.9711 38.6312 29.4781 38.8981 30.2046C39.1651 30.931 39.3506 31.4464 39.48 31.6533C39.6094 31.8603 39.68 32.833 39.68 32.833C39.68 32.833 40.0637 34.6233 40.3632 34.9265C40.6628 35.2297 40.8818 37.1586 40.8818 37.1586L38.2348 39.5387C38.2348 39.5387 38.0022 43.498 37.9525 43.6511C37.9027 43.8043 38.9162 47.2264 38.9162 47.2264Z" fill="white"/>
<path d="M39.0167 47.2262C39.0167 47.2262 39.1823 47.5118 39.0167 47.6453C38.8511 47.7788 39.032 48.1017 39.032 48.1017C39.032 48.1017 38.6194 48.3831 38.8004 48.6336C38.9814 48.884 38.8673 50.0151 38.8673 50.0151L38.3678 50.9609C38.3678 50.9609 38.3977 51.5704 38.4004 52.3941C38.4004 53.6794 38.3343 55.4862 37.9687 56.3099L38.0185 63.0684C38.0185 63.0684 36.2665 63.7989 34.8041 63.5765L34.5879 52.7315C34.5879 52.7315 34.9046 46.5815 35.0213 45.4018C35.0897 44.7894 35.1173 44.1719 35.1037 43.5546C35.1037 43.5546 35.0539 41.7085 34.8874 40.8517C34.8874 40.8517 34.7064 37.1397 34.6874 36.1122C34.6793 35.6206 34.7028 34.1863 34.7272 32.8224C34.7553 31.3313 34.787 29.9249 34.787 29.9249L34.3508 26.896C34.3508 26.896 34.787 26.896 34.8874 27.0502C34.9316 27.0984 34.9801 27.141 35.0322 27.1775C35.6023 27.6183 37.6176 28.9739 37.6176 28.9739C37.6176 28.9739 38.7316 29.481 38.9986 30.2074C39.2655 30.9339 39.451 31.4492 39.5814 31.6562C39.7117 31.8632 39.7804 32.8359 39.7804 32.8359C39.7804 32.8359 40.1641 34.6262 40.4637 34.9294C40.7632 35.2326 40.9795 37.1573 40.9795 37.1573L38.3325 39.5374C38.3325 39.5374 38.1 43.4967 38.0493 43.6498C37.9986 43.803 39.0167 47.2262 39.0167 47.2262Z" fill="white"/>
<path opacity="0.1" d="M35.8467 30.8039L36.0856 31.6007L34.8277 33.0495C34.8557 31.5593 34.8874 30.152 34.8874 30.152L34.4512 27.123C34.4512 27.123 34.8874 27.123 34.9879 27.2772C35.0319 27.3253 35.0805 27.3676 35.1327 27.4035L36.2023 30.9322L35.8467 30.8039Z" fill="black"/>
<path d="M35.7462 30.5749L35.986 31.3717L34.7281 32.8205C34.7562 31.3293 34.7879 29.923 34.7879 29.923L34.3508 26.894C34.3508 26.894 34.7879 26.894 34.8874 27.0482C34.9318 27.0961 34.9803 27.1388 35.0322 27.1755L36.1027 30.7032L35.7462 30.5749Z" fill="white"/>
<path opacity="0.1" d="M35.7462 22.6906C35.7469 23.0635 35.6956 23.4341 35.5942 23.7885C35.5771 23.7916 35.5596 23.7907 35.5429 23.7859C35.5261 23.7811 35.5103 23.7725 35.4965 23.7606C35.4729 22.8292 35.072 21.9548 34.5788 21.2108C34.4404 20.9861 34.2725 20.7872 34.0811 20.6209C33.8876 20.4547 33.647 20.3769 33.406 20.4026C33.1346 20.445 32.8947 20.6561 32.6205 20.683C32.2586 20.7172 31.9346 20.4305 31.5753 20.416C31.4293 20.4176 31.2852 20.4548 31.1527 20.5251C31.0202 20.5954 30.9024 20.6972 30.807 20.8237C30.6183 21.0791 30.4781 21.3765 30.3953 21.6971C30.253 22.1833 30.1755 22.6913 30.1654 23.2038C30.1609 23.4936 30.1365 23.8568 29.9012 23.9624C29.9189 23.7493 29.8977 23.5343 29.839 23.3311C29.7803 23.1278 29.6853 22.9407 29.56 22.7816L29.5546 22.7754C29.5546 22.7465 29.5546 22.7195 29.5546 22.6906C29.5476 22.2205 29.6225 21.7536 29.7749 21.317C29.9274 20.8803 30.1543 20.4828 30.4425 20.1475C30.7307 19.8123 31.0744 19.546 31.4536 19.3642C31.8327 19.1825 32.2397 19.0889 32.6509 19.0889C33.062 19.0889 33.469 19.1825 33.8481 19.3642C34.2273 19.546 34.571 19.8123 34.8592 20.1475C35.1474 20.4828 35.3744 20.8803 35.5268 21.317C35.6793 21.7536 35.7542 22.2205 35.7471 22.6906H35.7462Z" fill="black"/>
<path d="M33.9327 17.0683C33.4624 16.8154 32.9276 16.7675 32.4287 16.9338C32.178 17.0186 31.9418 17.1563 31.6875 17.2256C31.1446 17.3757 30.5111 17.2132 30.045 17.5764C29.7862 17.7834 29.6306 18.1104 29.4858 18.4281L29.1238 19.2166C28.9265 19.6481 28.7274 20.0869 28.6451 20.5619C28.5627 21.0369 28.6125 21.5688 28.8759 21.9506C29.0677 22.229 29.351 22.4039 29.5591 22.6657C29.6838 22.8249 29.7784 23.0119 29.8369 23.2149C29.8955 23.4179 29.9167 23.6326 29.8993 23.8454C30.1355 23.7419 30.1582 23.3777 30.1636 23.0879C30.1737 22.5753 30.2512 22.0674 30.3934 21.5812C30.476 21.2605 30.6163 20.963 30.8052 20.7078C30.9006 20.5814 31.0185 20.4796 31.151 20.4093C31.2834 20.339 31.4275 20.3018 31.5735 20.3001C31.9355 20.3146 32.2603 20.6002 32.6187 20.566C32.8902 20.5402 33.1309 20.328 33.4042 20.2866C33.6452 20.2606 33.886 20.3384 34.0793 20.505C34.2706 20.671 34.4382 20.87 34.5761 21.0948C35.0702 21.8389 35.4711 22.7112 35.4946 23.6446C35.5969 23.7305 35.7444 23.6188 35.7951 23.4863C35.8457 23.3539 35.8475 23.1986 35.9118 23.0724C35.986 22.9265 36.1281 22.8489 36.2394 22.7392C36.5217 22.4608 36.5923 21.992 36.5815 21.5667C36.5706 21.1414 36.4982 20.7099 36.5688 20.2918C36.6113 20.0352 36.7072 19.7951 36.7597 19.5416C36.8122 19.288 36.8186 19.0034 36.6946 18.7851C36.5136 18.4643 36.1326 18.4012 35.8005 18.3712C35.4231 18.3339 35.0856 18.3815 34.8449 18.0183C34.7319 17.8287 34.6047 17.6508 34.4648 17.4864C34.4168 17.4326 33.9327 17.0911 33.9327 17.0683Z" fill="#512E4E"/>
<path opacity="0.1" d="M24.0969 38.8909L23.1512 36.8916L22.8517 39.9764C22.8517 39.9764 23.0182 41.3465 22.9847 41.5566C22.9512 41.7667 23.667 43.6501 23.667 43.6501C23.667 43.6501 26.0317 48.4661 26.9972 48.7145L30.2596 46.0488L29.3944 44.7925C29.3944 44.7925 29.0949 44.659 29.0198 44.7925C29.0198 44.7925 27.4135 41.6321 27.247 41.4034C27.0805 41.1747 27.1131 40.7184 27.1131 40.7184C27.1131 40.7184 26.8633 40.4141 26.9466 40.1285C27.0298 39.8429 26.4642 38.8526 26.4642 38.8526L26.98 38.301L24.0969 38.8909Z" fill="black"/>
<path d="M23.201 36.6641L22.9512 36.8917L22.6517 39.9765C22.6517 39.9765 22.8182 41.3467 22.7847 41.5567C22.7512 41.7668 23.4679 43.6502 23.4679 43.6502C23.4679 43.6502 25.8316 48.4663 26.7972 48.7146L30.0605 46.0489L29.1944 44.7926C29.1944 44.7926 28.8949 44.6591 28.8198 44.7926C28.8198 44.7926 27.2135 41.6323 27.047 41.4036C26.8805 41.1749 26.914 40.7185 26.914 40.7185C26.914 40.7185 26.6642 40.4143 26.7475 40.1287C26.8307 39.8431 26.2642 38.8527 26.2642 38.8527L26.78 38.3012L23.201 36.6641Z" fill="white"/>
<path opacity="0.1" d="M38.7 48.7488C38.881 49.0003 38.7669 50.1292 38.7669 50.1292L38.2674 51.0751C38.2674 51.0751 38.2973 51.6856 38.2991 52.5083L37.4593 52.8084C37.3834 52.8355 37.3029 52.8415 37.2246 52.8258C37.1463 52.8101 37.0724 52.7732 37.0091 52.7182C36.9457 52.6632 36.8948 52.5917 36.8606 52.5097C36.8264 52.4276 36.8098 52.3374 36.8123 52.2465L36.957 46.9058L38.9162 47.7626C38.7497 47.8951 38.9325 48.22 38.9325 48.22C38.9325 48.22 38.5172 48.4973 38.7 48.7488Z" fill="black"/>
<path d="M38.8004 48.6335C38.9814 48.885 38.8674 50.015 38.8674 50.015L38.3678 50.9608C38.3678 50.9608 38.3977 51.5703 38.4004 52.3941L37.5452 52.6993C37.4709 52.7257 37.3921 52.7315 37.3155 52.716C37.2388 52.7006 37.1665 52.6645 37.1045 52.6106C37.0426 52.5567 36.9928 52.4867 36.9592 52.4064C36.9257 52.3261 36.9094 52.2378 36.9118 52.1488L37.0575 46.7915L39.0176 47.6483C38.8502 47.7808 39.033 48.1047 39.033 48.1047C39.033 48.1047 38.6194 48.3831 38.8004 48.6335Z" fill="white"/>
<path d="M39.4493 46.0881C39.4493 46.0881 39.3162 47.0598 38.9832 47.1168C38.6502 47.1737 38.5009 48.6887 38.1688 48.6349C37.8366 48.581 38.0566 47.2265 38.0683 46.9636C38.0801 46.7008 37.7063 45.6121 37.986 45.3648C38.2656 45.1175 39.1506 45.3648 39.1506 45.3648L39.4493 46.0881Z" fill="#CF6F80"/>
<path opacity="0.1" d="M40.1578 38.605L40.7859 37.1562C40.7859 37.1562 41.0356 38.2604 41.0356 38.8503C41.0356 39.4401 41.3849 39.4981 41.3849 39.4981C41.3849 39.4981 41.7677 40.0155 41.5659 40.3922C41.3641 40.7688 41.2827 41.7064 41.2827 41.7064C41.2827 41.7064 41.3487 43.4956 41.0492 43.7429C40.7497 43.9902 40.6872 44.5811 40.6872 44.5811C40.6872 44.5811 40.137 45.7039 40.1542 45.9709C40.1714 46.2379 39.3886 48.0457 39.3886 48.0457C39.3886 48.0457 39.7714 45.7991 37.5407 44.8285C37.5407 44.8285 37.5235 44.0658 37.69 43.8568C37.8566 43.6477 38.1163 43.5525 37.9534 42.496C37.7905 41.4394 37.9063 40.1769 37.9063 39.9234C37.9063 39.6698 38.4059 38.0886 38.4059 38.0886L40.1578 38.605Z" fill="black"/>
<path d="M40.4293 36.9497L40.9777 37.1567C40.9777 37.1567 41.2284 38.2608 41.2284 38.8507C41.2284 39.4405 41.5777 39.4985 41.5777 39.4985C41.5777 39.4985 41.9605 40.0159 41.7587 40.3926C41.5569 40.7693 41.4763 41.7068 41.4763 41.7068C41.4763 41.7068 41.5424 43.496 41.2429 43.7433C40.9433 43.9907 40.8764 44.5816 40.8764 44.5816C40.8764 44.5816 40.3271 45.7043 40.3443 45.9713C40.3614 46.2383 39.5778 48.0461 39.5778 48.0461C39.5778 48.0461 39.9615 45.7995 37.7299 44.8289C37.7299 44.8289 37.7136 44.0662 37.8801 43.8572C38.0466 43.6481 38.3063 43.5529 38.1434 42.4964C37.9805 41.4398 38.0964 40.1773 38.0964 39.9238C38.0964 39.6703 38.5959 38.0891 38.5959 38.0891L40.4293 36.9497Z" fill="white"/>
<path opacity="0.1" d="M28.3167 74.5001C28.3167 74.5001 29.1908 73.872 29.7646 74.3283C30.3383 74.7847 28.3167 74.5001 28.3167 74.5001Z" fill="black"/>
<path opacity="0.1" d="M35.1091 72.5578C35.1091 72.5578 35.8829 72.444 36.5326 73.2439C37.1824 74.0438 35.1091 72.5578 35.1091 72.5578Z" fill="black"/>
<g opacity="0.1">
<path d="M36.2412 22.5131C36.1299 22.6228 35.9869 22.7014 35.9127 22.8473C35.8493 22.9725 35.8475 23.1267 35.7969 23.2612C35.7462 23.3958 35.5987 23.5055 35.4964 23.4206C35.4729 22.4893 35.0711 21.6148 34.5779 20.8698C34.44 20.6449 34.2724 20.4459 34.0811 20.2799C33.8874 20.1134 33.6463 20.0355 33.4051 20.0616C33.1336 20.104 32.8947 20.3151 32.6205 20.341C32.2585 20.3762 31.9337 20.0895 31.5744 20.075C31.4284 20.0767 31.2844 20.114 31.152 20.1845C31.0197 20.255 30.902 20.357 30.807 20.4838C30.6181 20.7386 30.4778 21.0357 30.3952 21.3561C30.253 21.8424 30.1756 22.3503 30.1654 22.8628C30.16 23.1516 30.1364 23.5117 29.903 23.6193C29.9084 23.6957 29.9084 23.7726 29.903 23.849C30.1382 23.7455 30.1618 23.3813 30.1672 23.0915C30.1773 22.579 30.2548 22.071 30.3971 21.5848C30.4796 21.2641 30.6199 20.9666 30.8088 20.7114C30.9041 20.585 31.0218 20.4833 31.1541 20.413C31.2864 20.3427 31.4303 20.3054 31.5762 20.3037C31.9382 20.3182 32.264 20.6038 32.6223 20.5697C32.8938 20.5438 33.1345 20.3317 33.4069 20.2903C33.6481 20.2642 33.8892 20.3421 34.0829 20.5086C34.2742 20.6746 34.4418 20.8736 34.5797 21.0985C35.0729 21.8425 35.4747 22.7149 35.4982 23.6483C35.6005 23.7342 35.748 23.6224 35.7987 23.4899C35.8493 23.3575 35.8512 23.2023 35.9145 23.076C35.9887 22.9301 36.1317 22.8525 36.243 22.7428C36.5253 22.4644 36.5959 21.9957 36.5851 21.5703C36.5851 21.5569 36.5851 21.5434 36.5851 21.531C36.5679 21.8994 36.4819 22.2751 36.2412 22.5131Z" fill="black"/>
<path d="M29.5609 22.4395C29.3528 22.1777 29.0686 22.0028 28.8777 21.7255C28.7169 21.4799 28.6251 21.1844 28.6143 20.8779C28.5858 21.2609 28.6794 21.6428 28.8777 21.9531C29.0686 22.2315 29.3528 22.4064 29.5609 22.6682C29.7607 22.9243 29.8807 23.2489 29.9021 23.5912C29.9159 23.3829 29.8928 23.1735 29.8342 22.9756C29.7756 22.7777 29.6826 22.5953 29.5609 22.4395Z" fill="black"/>
<path d="M36.7616 19.3152C36.7082 19.5688 36.6131 19.8099 36.5697 20.0655C36.544 20.2363 36.5346 20.4098 36.5416 20.5829C36.5447 20.4843 36.5541 20.3861 36.5697 20.289C36.6131 20.0324 36.7082 19.7923 36.7616 19.5388C36.7927 19.3989 36.8028 19.2541 36.7914 19.1104C36.7858 19.1794 36.7758 19.2479 36.7616 19.3152Z" fill="black"/>
</g>
<path opacity="0.1" d="M12.0113 78.7078C16.8812 78.7078 20.8291 77.9827 20.8291 77.0883C20.8291 76.1938 16.8812 75.4688 12.0113 75.4688C7.1414 75.4688 3.19354 76.1938 3.19354 77.0883C3.19354 77.9827 7.1414 78.7078 12.0113 78.7078Z" fill="#6C63FF"/>
<path d="M12.2955 46.0645H11.7281V60.6731H12.2955V46.0645Z" fill="#535461"/>
<path d="M15.8609 60.6286L15.8257 61.2867L15.775 62.2181L15.7542 62.6051L15.7044 63.5364L15.6827 63.9235L15.632 64.8548L15.0601 75.4173C15.0352 75.8717 14.8599 76.2983 14.5697 76.6101C14.2795 76.9219 13.8963 77.0956 13.4981 77.0958H10.5245C10.1264 77.0956 9.74332 76.9219 9.45329 76.61C9.16326 76.2982 8.9881 75.8716 8.96346 75.4173L8.39425 64.8476L8.34357 63.9162L8.32276 63.5292L8.27208 62.5978L8.25127 62.2108L8.20059 61.2795L8.16439 60.6213C8.15811 60.4947 8.17452 60.3679 8.21262 60.2487C8.25073 60.1295 8.30972 60.0205 8.38599 59.9284C8.46225 59.8362 8.55418 59.7629 8.65613 59.7128C8.75807 59.6627 8.86789 59.637 8.97884 59.6372H15.061C15.1715 59.6383 15.2807 59.6653 15.3817 59.7165C15.4828 59.7677 15.5736 59.842 15.6486 59.9349C15.7235 60.0278 15.7811 60.1373 15.8176 60.2566C15.8541 60.3759 15.8689 60.5025 15.8609 60.6286Z" fill="#3F3D56"/>
<path d="M15.8256 61.2866L15.775 62.2149H8.24764L8.19696 61.2866H15.8256Z" fill="#9D9CB5"/>
<path d="M15.7542 62.6021L15.7044 63.5313H8.31917L8.26849 62.6021H15.7542Z" fill="#9D9CB5"/>
<path d="M15.6827 63.9189L15.6329 64.8472H8.39064L8.33997 63.9189H15.6827Z" fill="#9D9CB5"/>
<path d="M7.33095 51.5396C10.6349 54.2736 12.014 58.5495 12.014 58.5495C12.014 58.5495 8.03228 58.3933 4.72742 55.6593C1.42256 52.9253 0.0461426 48.6504 0.0461426 48.6504C0.0461426 48.6504 4.02609 48.8056 7.33095 51.5396Z" fill="#6C63FF"/>
<path d="M0.043457 48.6504C0.043457 48.6504 4.17724 51.2737 5.50299 53.4458C6.82873 55.6179 12.0141 58.5495 12.0141 58.5495" stroke="#535461" stroke-width="2" stroke-miterlimit="10"/>
<path d="M9.46388 46.0324C11.262 47.5195 12.014 49.8468 12.014 49.8468C12.014 49.8468 9.84667 49.7619 8.04764 48.2749C6.24861 46.7878 5.49841 44.4595 5.49841 44.4595C5.49841 44.4595 7.66485 44.5443 9.46388 46.0324Z" fill="#6C63FF"/>
<path d="M5.49841 44.4595C5.49841 44.4595 7.74811 45.8875 8.46935 47.0693C9.19059 48.2511 12.014 49.8468 12.014 49.8468" stroke="#535461" stroke-width="2" stroke-miterlimit="10"/>
<path d="M14.6248 49.7284C12.5588 52.3248 12.1217 55.718 12.1217 55.718C12.1217 55.718 15.0347 54.9005 17.0989 52.3031C19.1631 49.7056 19.602 46.3135 19.602 46.3135C19.602 46.3135 16.6908 47.132 14.6248 49.7284Z" fill="#6C63FF"/>
<path d="M19.6038 46.3145C19.6038 46.3145 16.9125 48.976 16.2283 50.8097C15.5442 52.6435 12.1217 55.7179 12.1217 55.7179" stroke="#535461" stroke-width="2" stroke-miterlimit="10"/>
<path d="M90.4646 48.8147C90.4646 48.8147 88.9706 40.3146 89.5425 39.257C89.5425 39.257 89.5633 38.274 89.5289 37.0208C89.5289 36.9732 89.5289 36.9256 89.5289 36.8769C89.6295 36.9537 89.7344 37.0228 89.8429 37.0839C90.3699 37.3935 90.9748 37.4828 91.5533 37.3364L91.1008 36.76C90.9922 36.6224 90.8791 36.4734 90.8556 36.2912C90.832 36.1091 90.8972 35.9466 90.9533 35.7842C91.3832 34.5424 91.4058 32.9808 90.5778 32.0329C89.8782 31.2361 89.7081 30.2075 88.9489 29.48C88.3941 28.9471 88.0891 28.1658 87.8014 27.4104C87.5579 26.7719 87.3127 26.1282 87.1733 25.4514C87.0648 24.9226 87.0213 24.3752 86.872 23.8588C86.7227 23.3425 86.4431 22.8406 86.006 22.6098C85.8503 22.528 85.6775 22.4815 85.5354 22.3728C85.349 22.229 85.2368 21.9951 85.1019 21.7902C84.4169 20.7554 82.1229 21.3649 81.0369 21.785C80.7417 21.8908 80.4683 22.0641 80.2333 22.2942L80.2433 22.2756C80.2514 22.26 80.2614 22.2445 80.2704 22.229C80.1516 22.3389 80.0489 22.4699 79.9664 22.617C79.808 22.9037 79.7419 23.2379 79.6098 23.5484C79.4506 23.9157 78.5646 24.9413 78.9456 25.3542C78.9723 25.3819 79.0029 25.4043 79.0361 25.4204C79.1791 25.4885 79.3366 25.5065 79.4886 25.4721L79.4723 25.5166C79.3422 25.8809 79.2755 26.2707 79.2759 26.6642C79.2759 28.3645 80.5021 29.7429 82.0161 29.7429C82.3007 29.7432 82.5836 29.6933 82.855 29.5949C82.8613 29.6342 82.8667 29.6735 82.8731 29.7128C82.8731 29.7284 82.8776 29.7439 82.8794 29.7594L82.8314 29.836C82.829 29.8313 82.8263 29.8268 82.8233 29.8225L81.4025 32.0929C81.1853 32.2678 79.9347 33.3027 79.8641 34.0788C79.7899 34.9284 79.7157 35.9228 79.7157 35.9228L79.7057 36.136C79.6437 36.1953 79.571 36.2386 79.4929 36.2627C79.4148 36.2868 79.333 36.2912 79.2533 36.2757C78.8099 36.1929 78.8098 38.1384 78.8098 38.1384C78.8098 38.1384 78.5148 38.4489 78.3121 38.1798C78.1094 37.9107 77.5737 38.8224 77.5737 38.8224L74.2164 38.988L74.1394 38.9932L73.9584 38.3526C73.939 38.285 73.897 38.229 73.8416 38.1966C73.7861 38.1643 73.7218 38.1582 73.6625 38.1798C73.6485 38.1851 73.6349 38.1916 73.6218 38.1995L73.6091 38.2077L73.5856 38.2264L73.5738 38.2388C73.5674 38.2455 73.5613 38.2528 73.5557 38.2605L73.5449 38.275L73.5395 38.2812C73.5186 38.3142 73.5047 38.3524 73.4991 38.3927C73.4934 38.4329 73.4961 38.4741 73.5069 38.513L73.6625 39.0625C73.0146 39.2115 72.3522 39.6317 72.8924 40.7886L70.1541 40.2101L71.04 41.0608L75.6136 42.1401C75.553 42.2643 75.5928 42.4443 75.7819 42.6978C76.5964 43.7917 78.0805 44.0887 78.6777 44.1652C78.8355 44.5687 79.0325 44.9506 79.265 45.3035L79.2135 46.3932C79.2135 46.3932 77.7013 54.6987 77.4244 55.1199C77.5642 54.9388 77.6921 54.7461 77.8072 54.5435C77.3683 56.2499 76.7547 58.5855 76.5936 58.9353C76.3348 59.4941 76.095 61.7552 76.39 61.9001C76.4805 61.9446 76.7393 61.9229 77.1086 61.8908V62.0781L77.0923 69.176C77.0923 69.176 77.1665 73.5295 76.9629 73.9444C76.7592 74.3594 76.7049 75.2297 76.7049 75.2297C76.7049 75.2297 75.8905 76.9465 75.2453 77.6367C75.2409 77.6421 75.236 77.6469 75.2308 77.6512L75.2109 77.4897C75.2109 77.4897 74.4353 78.6094 72.7196 78.5463C72.7196 78.5463 71.687 79.3141 73.2182 79.3555C74.7494 79.3969 76.7049 79.2935 76.7049 79.2935C76.7049 79.2935 78.0705 76.9134 79.2144 77.2238V79.0275H79.5646V77.1948C79.727 77.0726 79.866 76.9138 79.9732 76.7283C80.0803 76.5428 80.1535 76.3343 80.1881 76.1155C80.2181 75.89 80.1961 75.6594 80.1244 75.4465C80.0526 75.2337 79.9336 75.0459 79.779 74.9016C79.7096 74.8299 79.6539 74.7424 79.6154 74.6448C79.577 74.5472 79.5566 74.4416 79.5555 74.3346L79.5429 74.347C79.5429 74.3108 79.5347 74.2735 79.5311 74.2352C79.4306 73.3039 79.3049 71.3822 79.7492 69.9604C80.3582 68.0107 80.5428 65.2954 80.0994 63.679C79.9563 63.1623 79.8388 62.6368 79.7474 62.105C79.7365 62.0377 79.7266 61.9736 79.7175 61.9135C80.0206 61.9604 80.3208 62.0296 80.6161 62.1205C81.6432 62.4444 83.8902 62.5044 85.8087 62.4868C85.8132 62.5469 85.8186 62.61 85.825 62.6731C85.8592 63.1119 85.9307 63.5458 86.0385 63.9687C86.2793 64.7966 86.3897 68.4464 86.3897 68.4464C86.3897 68.4464 86.7001 71.4474 86.5308 72.6685C86.4403 73.3473 86.3498 74.0293 86.2983 74.7143V74.7278C86.2983 74.7278 85.7897 76.3835 85.4178 77.2828C85.4087 77.3056 85.3988 77.3283 85.3897 77.35C85.2905 77.3604 85.1929 77.3851 85.0992 77.4235C85.0992 77.4235 84.6006 78.5618 84.1038 78.7502C83.607 78.9385 83.7717 79.5584 84.8965 79.3307C86.0214 79.103 87.7199 78.9168 87.7199 78.9168L87.7932 77.7557L88.1389 77.2611L88.0484 78.419L88.4167 78.3362L88.3679 76.9278L88.9335 76.1186C88.9335 76.1186 89.6167 75.4232 88.6013 74.0552V74.0852C88.5905 74.0655 88.5805 74.0448 88.5688 74.0251V74.0189C88.4004 73.7209 88.2665 73.1652 88.5118 72.179C88.9552 70.397 89.2131 68.7796 89.2131 68.7796C89.2131 68.7796 90.2031 64.4468 89.0131 62.3968H89.0656C88.9436 62.1083 88.8574 61.8018 88.8095 61.4862C88.8035 61.4489 88.798 61.4106 88.7932 61.3713C89.6737 61.3133 90.5379 61.1312 91.2429 60.738C91.2402 60.7338 90.8158 50.4518 90.4646 48.8147ZM79.2859 41.6434V41.6641L79.1049 41.6744L79.2859 41.6434ZM78.6651 41.7417C78.6353 41.7492 78.6074 41.7644 78.5836 41.7862C78.5058 41.9121 78.4569 42.0583 78.4415 42.2115L78.1592 42.139C78.1592 42.139 77.961 42.0904 77.676 42.0356L77.5411 41.8803C77.9121 41.8452 78.2977 41.7934 78.6651 41.7417Z" fill="url(#paint1_linear_44_3183)"/>
<path d="M88.0067 76.9423L87.899 78.4087L88.2601 78.3259L88.2058 76.7354L88.0067 76.9423Z" fill="#1D2366"/>
<path d="M79.7691 69.9801C79.3338 71.3978 79.4569 73.3112 79.5546 74.2405C79.5908 74.584 79.6243 74.7931 79.6243 74.7931C79.6243 74.7931 78.9736 76.4881 78.9193 76.5523C78.865 76.6164 77.0045 77.9151 77.0045 77.9151L75.7041 78.7834C75.7041 78.7834 74.3847 78.1221 75.0172 77.8944C75.1465 77.8351 75.2629 77.7444 75.3584 77.6285C75.9918 76.9403 76.7873 75.2298 76.7873 75.2298C76.7873 75.2298 76.8416 74.3615 77.0407 73.9486C77.2398 73.5358 77.1674 69.1967 77.1674 69.1967L77.1828 62.1237V61.2017L79.6578 61.2224C79.6734 61.5354 79.7091 61.8467 79.7646 62.1537C79.8534 62.6837 79.9685 63.2075 80.1093 63.7225C80.5455 65.3358 80.3645 68.0377 79.7691 69.9801Z" fill="#FFB0B1"/>
<path opacity="0.1" d="M79.6243 74.7932C79.6243 74.7932 78.9736 76.4882 78.9193 76.5524C78.865 76.6166 77.0045 77.9153 77.0045 77.9153L75.7041 78.7835C75.7041 78.7835 74.3847 78.1222 75.0172 77.8946C75.1465 77.8353 75.2629 77.7445 75.3584 77.6286L75.4145 78.0808L75.848 78.0602L79.5582 74.2427C79.5908 74.5842 79.6243 74.7932 79.6243 74.7932Z" fill="black"/>
<path d="M79.579 74.3389L75.848 78.1822L75.4145 78.2029L75.324 77.4785C75.324 77.4785 74.5656 78.5941 72.8806 78.532C72.8806 78.532 71.8689 79.2967 73.3684 79.3381C74.8679 79.3795 76.7828 79.276 76.7828 79.276C76.7828 79.276 78.1203 76.8959 79.2397 77.2064V79.0039H79.5836V77.1898C79.7434 77.0667 79.8799 76.9079 79.9847 76.723C80.0895 76.538 80.1606 76.3308 80.1935 76.1136C80.2233 75.8899 80.2022 75.6612 80.1323 75.4495C80.0624 75.2378 79.946 75.0503 79.7944 74.9049C79.7267 74.8323 79.6727 74.7447 79.6356 74.6473C79.5986 74.55 79.5793 74.445 79.579 74.3389Z" fill="#1D2366"/>
<path d="M88.3506 72.1904C88.1099 73.1735 88.2411 73.7271 88.4058 74.0241V74.0303C88.6171 74.397 88.764 74.8072 88.8384 75.238L88.8528 75.3311L87.1552 78.1614L86.2339 78.5753C86.2339 78.5753 84.7526 77.9968 85.0231 77.8312C85.091 77.7909 85.1969 77.5756 85.3181 77.2786C85.6801 76.3835 86.1796 74.7319 86.1796 74.7319V74.7185C86.2321 74.0365 86.3154 73.3567 86.4077 72.6799C86.5733 71.4619 86.2692 68.4723 86.2692 68.4723C86.2692 68.4723 86.1606 64.8369 85.9254 64.0101C85.8191 63.5897 85.7485 63.1586 85.7145 62.7228C85.6656 62.2054 85.6548 61.779 85.6548 61.779C85.6548 61.779 86.6303 60.2268 88.4185 61.9032C88.5615 62.0369 88.6873 62.193 88.7922 62.3668C90.0275 64.3764 89.0329 68.8034 89.0329 68.8034C89.0329 68.8034 88.7841 70.4136 88.3506 72.1904Z" fill="#FFB0B1"/>
<path opacity="0.1" d="M88.8556 75.3313L87.1579 78.1616L86.2367 78.5755C86.2367 78.5755 84.7553 77.997 85.0259 77.8315C85.0937 77.7911 85.1996 77.5759 85.3209 77.2789C85.948 77.2727 86.2729 77.9557 86.2729 77.9557L87.0674 77.8108C87.0674 77.8108 88.1154 75.4555 88.3506 75.3117C88.5859 75.1678 88.3868 74.2365 88.3868 74.2365V73.9995C88.3932 74.0078 88.3986 74.0171 88.4058 74.0254V74.0316C88.6171 74.3983 88.764 74.8084 88.8384 75.2392L88.8556 75.3313Z" fill="black"/>
<path d="M86.3272 78.0167C86.3272 78.0167 85.8747 77.0668 85.0078 77.4176C85.0078 77.4176 84.52 78.5559 84.0323 78.7401C83.5445 78.9243 83.7074 79.5452 84.8096 79.3186C85.9118 79.0919 87.5733 78.9046 87.5733 78.9046L87.6457 77.7467L88.766 76.1147C88.766 76.1147 89.4339 75.4224 88.4403 74.0596V74.2965C88.4403 74.2965 88.6393 75.2279 88.4041 75.3717C88.1688 75.5156 87.1245 77.8719 87.1245 77.8719L86.3272 78.0167Z" fill="#1D2366"/>
<path opacity="0.1" d="M79.6605 61.2204C79.6761 61.5334 79.7118 61.8447 79.7673 62.1517C78.7483 61.981 77.8026 62.0659 77.1827 62.1217V61.1997L79.6605 61.2204Z" fill="black"/>
<path opacity="0.1" d="M88.8927 62.6245C88.8927 62.6245 87.4448 62.7052 85.7182 62.7218C85.6693 62.2044 85.6584 61.778 85.6584 61.778C85.6584 61.778 86.634 60.2258 88.4221 61.9022C88.5651 62.0359 88.691 62.192 88.7959 62.3658C88.8239 62.4541 88.8563 62.5404 88.8927 62.6245Z" fill="black"/>
<path d="M88.8927 62.4384C88.8927 62.4384 82.5509 62.7892 80.6179 62.1693C78.6849 61.5494 76.7692 62.0865 76.4805 61.9427C76.1918 61.7988 76.4262 59.546 76.6796 58.9882C76.933 58.4305 78.323 52.7896 78.323 52.7896L79.6605 44.8153L81.0695 44.3713L81.169 44.3392L83.6241 43.5652L85.4232 42.9971C85.4232 42.9971 89.0004 58.9675 88.6936 60.1452C88.5822 60.5961 88.5643 61.0705 88.6411 61.5308C88.688 61.8451 88.7727 62.1505 88.8927 62.4384Z" fill="#1D2366"/>
<path d="M74.9982 39.3618C74.9982 39.3618 73.7313 40.9141 74.6905 41.7792C75.6497 42.6443 76.2805 41.862 76.2805 41.862L74.9982 39.3618Z" fill="#C7DAF5"/>
<path opacity="0.1" d="M74.9982 39.3618C74.9982 39.3618 73.7313 40.9141 74.6905 41.7792C75.6497 42.6443 76.2805 41.862 76.2805 41.862L74.9982 39.3618Z" fill="black"/>
<path d="M85.234 29.1561C85.234 29.1561 85.0856 29.3175 84.8621 29.5555C84.5435 29.896 84.072 30.3937 83.654 30.8108C83.0748 31.3872 82.597 31.8104 82.768 31.4492C82.9391 31.0881 82.9065 30.4589 82.8214 29.8701C82.8151 29.8308 82.8096 29.7915 82.8033 29.7532C82.7329 29.3207 82.6395 28.8936 82.5237 28.4741C82.5237 28.4741 83.4594 27.0916 83.977 26.5462C84.1698 26.3393 84.3046 26.2544 84.3128 26.3983C84.3218 26.5918 84.4485 27.0192 84.606 27.4724C84.6105 27.4869 84.615 27.5003 84.6204 27.5148C84.7254 27.8253 84.844 28.144 84.948 28.4193C85.1073 28.8415 85.234 29.1561 85.234 29.1561Z" fill="#FFB0B1"/>
<path opacity="0.1" d="M84.6204 27.5151C84.5325 28.0559 84.3192 28.5598 84.0027 28.9741C83.6862 29.3885 83.2783 29.698 82.8214 29.8703C82.7495 29.398 82.65 28.9316 82.5237 28.4744C82.5237 28.4744 84.2856 25.8718 84.3128 26.3985C84.3191 26.5982 84.4566 27.0411 84.6204 27.5151Z" fill="black"/>
<path opacity="0.1" d="M82.6459 30.5656L82.8739 30.1982C82.8739 30.1982 83.025 31.2517 83.5807 30.7871C84.1363 30.3224 84.1635 34.2837 84.1635 34.2837L83.5671 44.4799L79.2578 44.185L79.3799 39.2581L79.8677 36.7746L81.074 33.1641L81.7916 31.9709L82.6459 30.5656Z" fill="black"/>
<path d="M84.1635 34.347L83.6205 43.5663L83.5635 44.5432L81.1609 44.3786L81.0704 44.3724L79.2605 44.2482L79.3827 39.3204L79.8704 36.8368L81.0767 33.2263L81.7943 32.0331L82.6486 30.6227L82.8767 30.2563C82.8767 30.2563 83.0278 31.3098 83.5834 30.8452L83.5952 30.8358C84.1382 30.4426 84.1635 34.347 84.1635 34.347Z" fill="#1D2366"/>
<path d="M79.931 35.9736C79.931 35.9736 79.7148 36.491 79.2804 36.4072C78.846 36.3234 78.8469 38.2699 78.8469 38.2699C78.8469 38.2699 78.5582 38.5804 78.3591 38.3113C78.1601 38.0423 77.6352 38.9519 77.6352 38.9519L74.3466 39.1174C74.3466 39.1174 75.8099 39.8822 75.523 42.196C75.523 42.196 80.4912 41.8442 80.6541 41.3071C80.817 40.7701 79.931 35.9736 79.931 35.9736Z" fill="white"/>
<path opacity="0.03" d="M79.931 35.9736C79.931 35.9736 79.7148 36.491 79.2804 36.4072C78.846 36.3234 78.8469 38.2699 78.8469 38.2699C78.8469 38.2699 78.5582 38.5804 78.3591 38.3113C78.1601 38.0423 77.6352 38.9519 77.6352 38.9519L74.3466 39.1174C74.3466 39.1174 75.8099 39.8822 75.523 42.196C75.523 42.196 80.4912 41.8442 80.6541 41.3071C80.817 40.7701 79.931 35.9736 79.931 35.9736Z" fill="black"/>
<path d="M70.3739 40.3335L71.2408 41.18L78.3772 42.8947L77.4922 41.8619L70.3739 40.3335Z" fill="white"/>
<path d="M82.6594 30.8919C82.5409 31.0988 82.2015 32.1585 81.9183 33.0836C81.6821 33.8546 81.4848 34.5324 81.4848 34.5324C81.4848 34.5324 81.0242 37.9618 80.7889 38.5817C80.5536 39.2015 80.6812 41.6189 80.6812 41.6189L79.8043 47.5888C79.8043 47.5888 79.4071 50.6674 78.7935 52.5063C78.1881 54.3162 77.5139 55.1648 77.4931 55.1917C77.7646 54.7715 79.2442 46.4991 79.2442 46.4991L79.7328 36.066C79.7328 36.066 79.8043 35.0746 79.8767 34.2271C79.9491 33.3796 81.4151 32.2227 81.4151 32.2227L82.8287 29.9243C82.9707 30.1416 82.8757 30.5204 82.6594 30.8919Z" fill="white"/>
<path d="M78.9736 44.2998C78.9736 44.2998 76.8923 44.1963 75.8842 42.8117C74.876 41.4271 78.2144 42.2591 78.2144 42.2591L79.0822 42.4868L78.9736 44.2998Z" fill="#FFB0B1"/>
<path opacity="0.1" d="M88.6936 60.146C88.5822 60.5969 88.5642 61.0714 88.6411 61.5316C86.3706 61.7158 83.9418 61.0142 83.9418 61.0142C83.4893 61.4902 82.2975 62.1919 82.2975 62.1919L81.6477 52.9819C81.2323 51.7401 81.0695 45.2342 81.0695 45.2342C81.0695 45.2342 81.1066 44.8937 81.16 44.3835C81.16 44.3711 81.16 44.3577 81.1645 44.3452C81.3265 42.9203 81.6477 40.2453 81.8052 39.8841C82.0224 39.3874 81.1373 38.0659 81.1373 38.0659L81.54 34.1387L81.5889 33.6648C82.4377 33.2312 83.0884 31.8466 83.0884 31.8466L83.5879 30.8459C84.1309 30.4475 84.1589 34.3519 84.1589 34.3519L83.616 43.5712L85.415 43.0031C85.415 43.0031 89.0004 58.9684 88.6936 60.146Z" fill="black"/>
<path d="M91.0238 60.7825C88.5488 62.1878 84.0503 60.886 84.0503 60.886C83.5979 61.362 82.406 62.0636 82.406 62.0636L81.7554 52.8537C81.3409 51.6119 81.178 45.1059 81.178 45.1059C81.178 45.1059 81.7011 40.2516 81.9183 39.7559C81.9816 39.611 81.9509 39.3958 81.8758 39.164C81.5065 38.0607 81.3707 36.8731 81.4794 35.6983L81.6531 34.0105L81.7011 33.5376C82.5508 33.103 83.2015 31.7184 83.2015 31.7184L83.654 30.8119L84.4865 29.1417L84.8811 28.3511L84.948 28.4204L85.4593 28.9502C85.4593 28.9502 85.6765 29.1572 86.0023 29.4677C86.7109 30.1506 87.9353 31.3531 88.5669 32.0889C89.1225 32.7367 89.2981 35.2565 89.3488 37.1533C89.3823 38.4023 89.3624 39.3813 89.3624 39.3813C88.8022 40.4358 90.2673 48.9017 90.2673 48.9017C90.6085 50.5378 91.0238 60.7825 91.0238 60.7825Z" fill="white"/>
<path opacity="0.03" d="M86.2729 31.6977C86.2729 31.6977 84.5743 35.3952 84.7716 36.8004C84.9688 38.2057 85.5299 39.7963 85.2593 40.1678C85.1664 40.3085 85.0462 40.4228 84.9082 40.5016C84.7702 40.5804 84.6181 40.6216 84.4639 40.6221C84.1924 40.6428 83.4684 41.2212 83.4684 41.2833C83.4684 41.3454 82.7997 41.3454 82.2015 41.6352C81.6034 41.9249 80.7201 42.0894 80.7201 42.0894C80.7201 42.0894 79.0007 42.0274 78.8406 42.2136C78.6804 42.3999 78.5157 43.5144 78.8587 44.4033C79.2016 45.2922 79.5826 45.9556 79.8704 46.0766C80.1582 46.1977 81.9843 45.4982 83.4657 45.3326C84.9471 45.167 86.5552 43.8248 86.5552 43.8248C86.5552 43.8248 88.3262 43.1005 88.6366 41.8825C88.947 40.6645 88.2574 33.9702 88.2574 33.9702C88.2574 33.9702 87.7362 30.8502 86.2729 31.6977Z" fill="black"/>
<path opacity="0.03" d="M86.0557 31.3874C86.0557 31.3874 84.3571 35.0858 84.5562 36.4901C84.7553 37.8944 85.3146 39.4859 85.0431 39.8585C84.9504 39.9994 84.8305 40.1137 84.6926 40.1926C84.5547 40.2714 84.4027 40.3125 84.2485 40.3127C83.977 40.3334 83.2531 40.9119 83.2531 40.974C83.2531 41.0361 82.5843 41.0361 81.9862 41.3248C81.388 41.6135 80.5048 41.7791 80.5048 41.7791C80.5048 41.7791 78.7854 41.717 78.6261 41.9033C78.4668 42.0895 78.3003 43.2051 78.6442 44.093C78.9881 44.9809 79.3682 45.6452 79.6559 45.7663C79.9437 45.8874 81.7699 45.1878 83.2513 45.0233C84.7327 44.8587 86.3408 43.5145 86.3408 43.5145C86.3408 43.5145 88.1108 42.7901 88.4176 41.5732C88.7244 40.3562 88.0384 33.6598 88.0384 33.6598C88.0384 33.6598 87.519 30.5409 86.0557 31.3874Z" fill="black"/>
<path d="M86.2195 31.5117C86.2195 31.5117 84.5209 35.2102 84.72 36.6144C84.9191 38.0187 85.4783 39.6103 85.2078 39.9818C85.1151 40.123 84.995 40.2377 84.857 40.3167C84.7189 40.3957 84.5667 40.4369 84.4123 40.4371C84.1408 40.4578 83.4169 41.0363 83.4169 41.0973C83.4169 41.1584 82.749 41.1594 82.15 41.4491C81.5509 41.7389 80.6686 41.9034 80.6686 41.9034C80.6686 41.9034 78.9492 41.8413 78.789 42.0276C78.6288 42.2139 78.4641 43.3294 78.8071 44.2173C79.1501 45.1052 79.531 45.7695 79.8188 45.8906C80.1066 46.0117 81.9328 45.3122 83.4142 45.1466C84.8956 44.981 86.5036 43.6388 86.5036 43.6388C86.5036 43.6388 88.2746 42.9145 88.585 41.6965C88.8954 40.4785 88.2104 33.7842 88.2104 33.7842C88.2104 33.7842 87.6819 30.6694 86.2195 31.5117Z" fill="white"/>
<path opacity="0.1" d="M86.1824 41.4312C86.1824 41.4312 84.825 41.1208 85.2973 41.6382C85.7697 42.1556 85.767 42.6089 86.3453 42.5882C86.9235 42.5675 86.1824 41.4312 86.1824 41.4312Z" fill="black"/>
<path opacity="0.1" d="M88.4764 52.564C88.4764 52.564 87.8629 53.0389 89.0366 54.1338C90.2103 55.2286 88.4764 52.564 88.4764 52.564Z" fill="black"/>
<path opacity="0.1" d="M87.3054 56.4683C87.3054 56.5304 87.0882 58.7449 87.9009 59.2985C88.7135 59.8521 87.3054 56.4683 87.3054 56.4683Z" fill="black"/>
<path d="M74.4027 39.1123C73.7475 39.1382 72.3322 39.3669 73.0661 40.9326C73.715 42.3182 74.8054 41.392 75.419 40.6894C75.2693 40.0343 74.9055 39.4698 74.4027 39.1123Z" fill="#FFB0B1"/>
<path opacity="0.1" d="M86.0023 29.5308C85.3073 30.074 84.7245 30.5325 84.6105 30.6277C84.2992 30.8916 83.7056 32.4407 83.3228 33.2313C83.0178 33.8677 82.0269 34.0312 81.6531 34.0716L81.7011 33.5987C82.5508 33.164 83.2015 31.7794 83.2015 31.7794L84.8811 28.4121L85.4593 29.0133C85.4593 29.0133 85.6765 29.2203 86.0023 29.5308Z" fill="black"/>
<path d="M86.0023 29.4687C85.3073 30.012 84.7245 30.4705 84.6105 30.5667C84.2992 30.8295 83.7056 32.3787 83.3228 33.1693C83.0178 33.8057 82.0269 33.9692 81.6531 34.0096L81.7011 33.5366C82.5508 33.102 83.2015 31.7174 83.2015 31.7174L84.8811 28.3501L85.4593 28.9493C85.4593 28.9493 85.6765 29.1542 86.0023 29.4687Z" fill="#DCE7FF"/>
<path d="M84.6648 26.832C84.6652 27.4532 84.5005 28.0598 84.1924 28.5715C83.8287 29.1765 83.2873 29.6123 82.6665 29.7999C82.0458 29.9875 81.3868 29.9144 80.8091 29.5939C80.2315 29.2734 79.7734 28.7268 79.5181 28.0531C79.2627 27.3794 79.227 26.6234 79.4174 25.9223C79.6078 25.2211 80.0118 24.6212 80.5559 24.2314C81.1 23.8416 81.7483 23.6878 82.3831 23.7979C83.0179 23.9079 83.5972 24.2745 84.0158 24.8312C84.4344 25.3879 84.6647 26.0977 84.6648 26.832Z" fill="#FFB0B1"/>
<path opacity="0.1" d="M89.3488 37.1544C88.9813 36.8958 88.682 36.5282 88.4827 36.0906C88.3316 35.7491 88.2312 35.3548 87.9733 35.1126C87.7407 34.8953 87.4303 34.8426 87.1407 34.7453C86.1887 34.4235 85.3905 33.43 85.3607 32.2958C85.3462 31.7619 85.4919 31.2289 85.4258 30.7001C85.3883 30.4009 85.2842 30.1176 85.1236 29.8775C85.0438 29.7626 84.9564 29.655 84.8621 29.5556C84.7354 29.419 84.6023 29.2866 84.4865 29.1417C84.4135 29.052 84.3498 28.953 84.2965 28.8468C84.2534 28.7598 84.2185 28.6679 84.1924 28.5725C84.0114 27.9392 84.1761 27.1879 83.977 26.5474L83.9662 26.5122C83.891 26.2845 83.7381 26.0569 83.5255 26.0393C83.3128 26.0217 83.1309 26.2235 82.9282 26.3135C82.5038 26.5019 82.0459 26.1811 81.692 25.8541C81.3382 25.527 80.9391 25.1535 80.4894 25.2259C80.1916 25.2745 79.9564 25.5063 79.6822 25.6264C79.6202 25.6538 79.5564 25.6749 79.4912 25.6895C79.7233 25.0278 80.1496 24.4791 80.697 24.1377C81.2444 23.7963 81.8786 23.6836 82.4908 23.8189C83.103 23.9542 83.6548 24.3291 84.0515 24.8791C84.4483 25.4292 84.6651 26.12 84.6648 26.833C84.6651 27.0483 84.6454 27.263 84.606 27.4736C84.6105 27.488 84.615 27.5015 84.6204 27.516C84.7254 27.8264 84.844 28.1452 84.948 28.4204L85.4593 28.9503C85.4593 28.9503 85.6765 29.1572 86.0023 29.4677C86.7109 30.1507 87.9352 31.3531 88.5669 32.0889C89.1225 32.7388 89.2963 35.2575 89.3488 37.1544Z" fill="black"/>
<path d="M79.6505 23.7358C79.7799 23.4346 79.8441 23.0973 79.9989 22.8117C80.226 22.3977 80.6224 22.1328 81.0296 21.9724C82.0929 21.5533 84.3399 20.9448 85.0114 21.9724C85.1435 22.1794 85.253 22.4091 85.4358 22.5519C85.5751 22.6606 85.7435 22.7072 85.8964 22.7889C86.3244 23.0186 86.5977 23.5195 86.7434 24.0307C86.8891 24.5419 86.9326 25.0904 87.0393 25.6171C87.176 26.2928 87.4158 26.9334 87.6547 27.5698C87.9361 28.3211 88.2348 29.1003 88.7777 29.6312C89.5189 30.3556 89.6827 31.3811 90.3704 32.1758C91.1849 33.1196 91.1587 34.677 90.7388 35.9136C90.6836 36.0761 90.6211 36.2458 90.6428 36.4186C90.6646 36.5914 90.7768 36.7487 90.8827 36.8863L91.3279 37.4607C90.2745 37.7515 89.0827 37.1223 88.5922 36.0181C88.4411 35.6766 88.3407 35.2834 88.0818 35.0402C87.8502 34.8229 87.5389 34.7712 87.2502 34.6739C86.2982 34.351 85.5 33.3566 85.4702 32.2224C85.4557 31.6895 85.6014 31.1565 85.5353 30.6288C85.4986 30.3275 85.3941 30.0422 85.2322 29.8009C84.9833 29.4294 84.6078 29.18 84.4051 28.7661C84.0621 28.0738 84.3227 27.1745 84.0757 26.4315C83.9996 26.2038 83.8476 25.9762 83.6349 25.9586C83.4223 25.941 83.2404 26.1428 83.0368 26.2328C82.6133 26.4212 82.1554 26.1014 81.8015 25.7733C81.4477 25.4453 81.0486 25.0728 80.598 25.1462C80.3002 25.1938 80.0658 25.4256 79.7916 25.5467C79.5889 25.6357 79.1781 25.7154 79.0007 25.5198C78.6261 25.1255 79.4939 24.1042 79.6505 23.7358Z" fill="#591D4B"/>
<path opacity="0.1" d="M88.8438 35.6769C88.6918 35.3354 88.5923 34.9422 88.3335 34.7C88.1018 34.4827 87.7905 34.4299 87.5009 34.3326C86.5498 34.0108 85.7516 33.0163 85.7209 31.8822C85.7064 31.3492 85.8521 30.8153 85.7869 30.2875C85.749 29.9882 85.6447 29.7049 85.4838 29.4648C85.234 29.0933 84.8585 28.8439 84.6567 28.43C84.3137 27.7387 84.5743 26.8395 84.3264 26.0954C84.2513 25.8688 84.0983 25.6411 83.8866 25.6225C83.6748 25.6039 83.4911 25.8077 83.2884 25.8978C82.8649 26.0861 82.4061 25.7653 82.0531 25.4383C81.7002 25.1113 81.2993 24.7377 80.8496 24.8102C80.5518 24.8588 80.3166 25.0906 80.0433 25.2107C79.8406 25.2996 79.4288 25.3804 79.2514 25.1848C78.8786 24.7708 79.7464 23.7515 79.9021 23.3852C80.0315 23.083 80.0957 22.7467 80.2514 22.4611C80.2595 22.4456 80.2686 22.4301 80.2776 22.4146C80.1612 22.5248 80.0607 22.6555 79.9799 22.8016C79.8252 23.0872 79.7609 23.4225 79.6315 23.7257C79.475 24.092 78.6071 25.1144 78.9809 25.5252C79.1618 25.7219 79.5691 25.6411 79.7718 25.5521C80.0433 25.4311 80.2804 25.1993 80.5781 25.1517C81.0306 25.0782 81.4287 25.4518 81.7817 25.7788C82.1346 26.1058 82.5961 26.4266 83.0178 26.2382C83.2205 26.1482 83.3979 25.9454 83.6151 25.964C83.8323 25.9826 83.9771 26.2093 84.0558 26.4369C84.3028 27.1799 84.0422 28.0792 84.3852 28.7715C84.5879 29.1782 84.9634 29.4327 85.2123 29.8063C85.3742 30.0477 85.4787 30.3329 85.5155 30.6342C85.5815 31.1619 85.4358 31.6949 85.4503 32.2278C85.4802 33.3661 86.2783 34.3564 87.2303 34.6793C87.5172 34.7766 87.8303 34.8283 88.062 35.0456C88.3217 35.2888 88.424 35.6821 88.5724 36.0236C89.0628 37.1277 90.2547 37.7569 91.308 37.4661L91.0981 37.195C90.185 37.2105 89.261 36.6165 88.8438 35.6769Z" fill="black"/>
<path opacity="0.1" d="M82.6052 30.9535C82.4866 31.1605 82.1473 32.2201 81.864 33.1453C81.5989 33.0273 81.3582 32.275 81.3582 32.275L82.7717 29.9756C82.9165 30.2032 82.8214 30.581 82.6052 30.9535Z" fill="black"/>
<path d="M82.6594 30.8914C82.5409 31.0984 82.2015 32.1581 81.9183 33.0832C81.6531 32.9663 81.4124 32.2129 81.4124 32.2129L82.8259 29.9146C82.9707 30.1412 82.8757 30.5199 82.6594 30.8914Z" fill="#DCE7FF"/>
<path d="M74.4408 41.4633L73.6571 38.6372C73.6478 38.6041 73.6443 38.5692 73.6469 38.5346C73.6494 38.5 73.6579 38.4663 73.6718 38.4354C73.6858 38.4045 73.705 38.3771 73.7282 38.3548C73.7514 38.3324 73.7783 38.3155 73.8073 38.305C73.8656 38.2842 73.9288 38.2906 73.983 38.3227C74.0372 38.3549 74.0782 38.4103 74.0969 38.4768L74.8806 41.2998L74.8027 41.8907L74.4408 41.4633Z" fill="#BE8B87"/>
<path opacity="0.1" d="M73.7313 38.3891C73.7897 38.3679 73.8531 38.3742 73.9075 38.4064C73.962 38.4385 74.003 38.4941 74.0217 38.5609L74.8054 41.3839L74.7466 41.8268L74.8036 41.8951L74.8814 41.3042L74.0932 38.4812C74.0745 38.4147 74.0336 38.3593 73.9794 38.3271C73.9251 38.2949 73.862 38.2886 73.8036 38.3094C73.7546 38.3276 73.7122 38.364 73.6833 38.4129C73.6987 38.4034 73.7147 38.3955 73.7313 38.3891Z" fill="white"/>
<path d="M74.4407 41.4636L74.8805 41.3042L74.8163 41.7885L74.8027 41.8951L74.6742 41.7419L74.4407 41.4636Z" fill="#EFC8C4"/>
<path d="M74.6742 41.742C74.6818 41.7309 74.6914 41.7217 74.7022 41.715C74.7086 41.7104 74.716 41.708 74.7235 41.708C74.731 41.708 74.7384 41.7104 74.7448 41.715C74.7509 41.7236 74.7561 41.733 74.7602 41.743C74.7661 41.7544 74.7743 41.7641 74.784 41.7715C74.7937 41.7788 74.8047 41.7836 74.8163 41.7854L74.8027 41.8889L74.6742 41.742Z" fill="#727A9C"/>
<path d="M73.6525 39.6411C73.6525 39.6411 75.2244 39.6308 74.8543 40.3955C74.4842 41.1602 73.9059 41.2523 73.9059 41.2523L73.6525 39.6411Z" fill="#FFB0B1"/>
<path d="M63.8764 5.32129H63.8085C61.1082 5.32129 58.72 6.95528 57.3463 9.36643C55.9726 6.95528 53.5845 5.32129 50.8841 5.32129H50.8162C48.7897 5.34337 46.8527 6.27913 45.4261 7.9252C43.9995 9.57127 43.1986 11.7946 43.1975 14.1121C43.1975 16.99 44.2997 21.0734 46.449 24.4335C50.5438 30.836 57.3463 36.4375 57.3463 36.4375C57.3463 36.4375 64.1488 30.837 68.2428 24.4335C70.3929 21.0734 71.4942 16.99 71.4942 14.1121C71.4931 11.7948 70.6924 9.5716 69.266 7.92556C67.8396 6.27952 65.9028 5.34364 63.8764 5.32129ZM62.9054 24.9261C62.5979 24.9247 62.2979 24.8171 62.0448 24.6173C61.7917 24.4174 61.5974 24.1348 61.4873 23.8064H59.8729C59.7666 23.8056 59.6632 23.7669 59.577 23.6957C59.4909 23.6245 59.4263 23.5242 59.3924 23.409L58.8965 21.7005L57.3273 27.9705C57.2968 28.0912 57.2328 28.1973 57.145 28.2729C57.0572 28.3485 56.9503 28.3894 56.8405 28.3896H56.8088C56.6941 28.3833 56.5848 28.3322 56.4992 28.2448C56.4135 28.1574 56.3567 28.039 56.3382 27.9095L54.7211 16.7872L53.5392 23.3687C53.5121 23.4937 53.4492 23.6047 53.3604 23.6841C53.2717 23.7634 53.1623 23.8065 53.0496 23.8064H50.7755C50.7073 23.8097 50.6393 23.7972 50.5755 23.7696C50.5116 23.7421 50.4533 23.7 50.4041 23.646C50.3548 23.592 50.3156 23.5272 50.2888 23.4555C50.2621 23.3837 50.2483 23.3065 50.2483 23.2284C50.2483 23.1504 50.2621 23.0732 50.2888 23.0014C50.3156 22.9297 50.3548 22.8648 50.4041 22.8108C50.4533 22.7569 50.5116 22.7148 50.5755 22.6873C50.6393 22.6597 50.7073 22.6472 50.7755 22.6505H52.6515L54.3256 13.8017C54.3531 13.6709 54.4195 13.555 54.5134 13.474C54.6073 13.3929 54.7229 13.3516 54.8405 13.3573C54.958 13.3629 55.0702 13.415 55.1579 13.5048C55.2455 13.5945 55.3032 13.7163 55.3211 13.8493L56.9726 25.1951L58.3789 19.5853C58.4081 19.4672 58.47 19.363 58.5554 19.2884C58.6406 19.2138 58.7448 19.1728 58.8521 19.1714H58.8621C58.9685 19.1714 59.0721 19.2099 59.1582 19.2812C59.2443 19.3526 59.3086 19.4532 59.3417 19.5688L60.2385 22.6536H61.4674C61.5548 22.35 61.7138 22.08 61.9269 21.8733C62.14 21.6665 62.399 21.5311 62.6751 21.4821C62.9513 21.433 63.2339 21.4721 63.4918 21.5951C63.7498 21.7181 63.973 21.9202 64.1368 22.1791C64.3006 22.438 64.3987 22.7436 64.4203 23.0622C64.4418 23.3809 64.3859 23.7001 64.2588 23.9847C64.1317 24.2693 63.9383 24.5082 63.7 24.6751C63.4616 24.8419 63.1876 24.9302 62.9081 24.9302L62.9054 24.9261Z" fill="#6C63FF"/>
</g>
<defs>
<linearGradient id="paint0_linear_44_3183" x1="32.2459" y1="80.1854" x2="32.2459" y2="16.5084" gradientUnits="userSpaceOnUse">
<stop stop-color="#808080" stop-opacity="0.25"/>
<stop offset="0.54" stop-color="#808080" stop-opacity="0.12"/>
<stop offset="1" stop-color="#808080" stop-opacity="0.1"/>
</linearGradient>
<linearGradient id="paint1_linear_44_3183" x1="80.8505" y1="79.3804" x2="80.8505" y2="21.2231" gradientUnits="userSpaceOnUse">
<stop stop-color="#808080" stop-opacity="0.25"/>
<stop offset="0.54" stop-color="#808080" stop-opacity="0.12"/>
<stop offset="1" stop-color="#808080" stop-opacity="0.1"/>
</linearGradient>
<clipPath id="clip0_44_3183">
<rect width="100" height="81" fill="white"/>
</clipPath>
</defs>
</svg>
