<svg width="45" height="43" viewBox="0 0 45 43" fill="none" xmlns="http://www.w3.org/2000/svg">
<path d="M5.625 7.39062C5.625 4.7945 7.83 2.6875 10.5469 2.6875H17.5781C18.1376 2.6875 18.6741 2.89986 19.0697 3.27786C19.4653 3.65587 19.6875 4.16855 19.6875 4.70312C19.6875 5.2377 19.4653 5.75038 19.0697 6.12839C18.6741 6.50639 18.1376 6.71875 17.5781 6.71875H10.5469C10.3604 6.71875 10.1816 6.78954 10.0497 6.91554C9.91783 7.04154 9.84375 7.21243 9.84375 7.39062V35.6094C9.84375 35.9803 10.1588 36.2812 10.5469 36.2812H17.5781C18.1376 36.2812 18.6741 36.4936 19.0697 36.8716C19.4653 37.2496 19.6875 37.7623 19.6875 38.2969C19.6875 38.8315 19.4653 39.3441 19.0697 39.7221C18.6741 40.1001 18.1376 40.3125 17.5781 40.3125H10.5469C9.24151 40.3125 7.98961 39.817 7.06658 38.935C6.14355 38.053 5.625 36.8567 5.625 35.6094V7.39062ZM34.9875 19.4844L29.4469 14.19C29.1692 13.9436 28.9662 13.6303 28.8593 13.2829C28.7524 12.9356 28.7455 12.5671 28.8394 12.2163C28.9332 11.8655 29.1244 11.5454 29.3927 11.2897C29.6609 11.034 29.9964 10.8522 30.3638 10.7634C30.7304 10.6736 31.1157 10.6799 31.4789 10.7816C31.8422 10.8833 32.1701 11.0766 32.4281 11.3412L41.5688 20.0756C41.9638 20.4536 42.1856 20.9659 42.1856 21.5C42.1856 22.0341 41.9638 22.5464 41.5688 22.9244L32.4281 31.6587C32.1703 31.9241 31.8424 32.118 31.4788 32.2202C31.1153 32.3224 30.7297 32.3289 30.3626 32.2393C29.9955 32.1496 29.6605 31.9669 29.3929 31.7106C29.1254 31.4542 28.9351 31.1336 28.8422 30.7826C28.7482 30.4322 28.7548 30.0641 28.8612 29.717C28.9676 29.3699 29.1699 29.0566 29.4469 28.81L34.9875 23.5156H18.9844C18.4249 23.5156 17.8884 23.3033 17.4928 22.9253C17.0972 22.5473 16.875 22.0346 16.875 21.5C16.875 20.9654 17.0972 20.4527 17.4928 20.0747C17.8884 19.6967 18.4249 19.4844 18.9844 19.4844H34.9875Z" fill="#F8F8F8"/>
</svg>
