<svg width="960" height="960" viewBox="0 0 960 960" fill="none" xmlns="http://www.w3.org/2000/svg">
<rect width="960" height="960" fill="white"/>
<g filter="url(#filter0_d_191_327)">
<circle cx="480" cy="480" r="320" fill="#6527BE"/>
</g>
<path d="M336.614 449.75H326.659C326.477 448.462 326.106 447.318 325.545 446.318C324.985 445.303 324.265 444.439 323.386 443.727C322.508 443.015 321.492 442.47 320.341 442.091C319.205 441.712 317.97 441.523 316.636 441.523C314.227 441.523 312.129 442.121 310.341 443.318C308.553 444.5 307.167 446.227 306.182 448.5C305.197 450.758 304.705 453.5 304.705 456.727C304.705 460.045 305.197 462.833 306.182 465.091C307.182 467.348 308.576 469.053 310.364 470.205C312.152 471.356 314.22 471.932 316.568 471.932C317.886 471.932 319.106 471.758 320.227 471.409C321.364 471.061 322.371 470.553 323.25 469.886C324.129 469.205 324.856 468.379 325.432 467.409C326.023 466.439 326.432 465.333 326.659 464.091L336.614 464.136C336.356 466.273 335.712 468.333 334.682 470.318C333.667 472.288 332.295 474.053 330.568 475.614C328.856 477.159 326.811 478.386 324.432 479.295C322.068 480.189 319.394 480.636 316.409 480.636C312.258 480.636 308.545 479.697 305.273 477.818C302.015 475.939 299.439 473.22 297.545 469.659C295.667 466.098 294.727 461.788 294.727 456.727C294.727 451.652 295.682 447.333 297.591 443.773C299.5 440.212 302.091 437.5 305.364 435.636C308.636 433.758 312.318 432.818 316.409 432.818C319.106 432.818 321.606 433.197 323.909 433.955C326.227 434.712 328.28 435.818 330.068 437.273C331.856 438.712 333.311 440.477 334.432 442.568C335.568 444.659 336.295 447.053 336.614 449.75ZM353.17 433.455V480H343.489V433.455H353.17ZM376.699 480.682C373.169 480.682 370.116 479.932 367.54 478.432C364.979 476.917 363.002 474.811 361.608 472.114C360.214 469.402 359.517 466.258 359.517 462.682C359.517 459.076 360.214 455.924 361.608 453.227C363.002 450.515 364.979 448.409 367.54 446.909C370.116 445.394 373.169 444.636 376.699 444.636C380.229 444.636 383.275 445.394 385.835 446.909C388.411 448.409 390.396 450.515 391.79 453.227C393.184 455.924 393.881 459.076 393.881 462.682C393.881 466.258 393.184 469.402 391.79 472.114C390.396 474.811 388.411 476.917 385.835 478.432C383.275 479.932 380.229 480.682 376.699 480.682ZM376.744 473.182C378.35 473.182 379.691 472.727 380.767 471.818C381.843 470.894 382.653 469.636 383.199 468.045C383.759 466.455 384.04 464.644 384.04 462.614C384.04 460.583 383.759 458.773 383.199 457.182C382.653 455.591 381.843 454.333 380.767 453.409C379.691 452.485 378.35 452.023 376.744 452.023C375.123 452.023 373.759 452.485 372.653 453.409C371.563 454.333 370.737 455.591 370.176 457.182C369.631 458.773 369.358 460.583 369.358 462.614C369.358 464.644 369.631 466.455 370.176 468.045C370.737 469.636 371.563 470.894 372.653 471.818C373.759 472.727 375.123 473.182 376.744 473.182ZM422.562 465.136V445.091H432.244V480H422.949V473.659H422.585C421.797 475.705 420.487 477.348 418.653 478.591C416.835 479.833 414.616 480.455 411.994 480.455C409.661 480.455 407.608 479.924 405.835 478.864C404.063 477.803 402.676 476.295 401.676 474.341C400.691 472.386 400.191 470.045 400.176 467.318V445.091H409.858V465.591C409.873 467.652 410.426 469.28 411.517 470.477C412.608 471.674 414.07 472.273 415.903 472.273C417.07 472.273 418.161 472.008 419.176 471.477C420.191 470.932 421.009 470.129 421.631 469.068C422.267 468.008 422.578 466.697 422.562 465.136ZM452.852 480.568C450.201 480.568 447.799 479.886 445.648 478.523C443.511 477.144 441.814 475.121 440.557 472.455C439.314 469.773 438.693 466.485 438.693 462.591C438.693 458.591 439.337 455.265 440.625 452.614C441.913 449.947 443.625 447.955 445.761 446.636C447.913 445.303 450.269 444.636 452.83 444.636C454.784 444.636 456.413 444.97 457.716 445.636C459.034 446.288 460.095 447.106 460.898 448.091C461.716 449.061 462.337 450.015 462.761 450.955H463.057V433.455H472.716V480H463.17V474.409H462.761C462.307 475.379 461.663 476.341 460.83 477.295C460.011 478.235 458.943 479.015 457.625 479.636C456.322 480.258 454.731 480.568 452.852 480.568ZM455.92 472.864C457.481 472.864 458.799 472.439 459.875 471.591C460.966 470.727 461.799 469.523 462.375 467.977C462.966 466.432 463.261 464.621 463.261 462.545C463.261 460.47 462.973 458.667 462.398 457.136C461.822 455.606 460.989 454.424 459.898 453.591C458.807 452.758 457.481 452.341 455.92 452.341C454.33 452.341 452.989 452.773 451.898 453.636C450.807 454.5 449.981 455.697 449.42 457.227C448.86 458.758 448.58 460.53 448.58 462.545C448.58 464.576 448.86 466.371 449.42 467.932C449.996 469.477 450.822 470.689 451.898 471.568C452.989 472.432 454.33 472.864 455.92 472.864Z" fill="white"/>
<path d="M480.858 433.455H492.994L505.812 464.727H506.358L519.176 433.455H531.312V480H521.767V449.705H521.381L509.335 479.773H502.835L490.79 449.591H490.403V480H480.858V433.455ZM555.148 480.682C551.557 480.682 548.466 479.955 545.875 478.5C543.299 477.03 541.314 474.955 539.92 472.273C538.527 469.576 537.83 466.386 537.83 462.705C537.83 459.114 538.527 455.962 539.92 453.25C541.314 450.538 543.277 448.424 545.807 446.909C548.352 445.394 551.337 444.636 554.761 444.636C557.064 444.636 559.208 445.008 561.193 445.75C563.193 446.477 564.936 447.576 566.42 449.045C567.92 450.515 569.087 452.364 569.92 454.591C570.754 456.803 571.17 459.394 571.17 462.364V465.023H541.693V459.023H562.057C562.057 457.629 561.754 456.394 561.148 455.318C560.542 454.242 559.701 453.402 558.625 452.795C557.564 452.174 556.33 451.864 554.92 451.864C553.451 451.864 552.148 452.205 551.011 452.886C549.89 453.553 549.011 454.455 548.375 455.591C547.739 456.712 547.413 457.962 547.398 459.341V465.045C547.398 466.773 547.716 468.265 548.352 469.523C549.004 470.78 549.92 471.75 551.102 472.432C552.284 473.114 553.686 473.455 555.307 473.455C556.383 473.455 557.367 473.303 558.261 473C559.155 472.697 559.92 472.242 560.557 471.636C561.193 471.03 561.678 470.288 562.011 469.409L570.966 470C570.511 472.152 569.58 474.03 568.17 475.636C566.777 477.227 564.973 478.47 562.761 479.364C560.564 480.242 558.027 480.682 555.148 480.682ZM590.352 480.568C587.701 480.568 585.299 479.886 583.148 478.523C581.011 477.144 579.314 475.121 578.057 472.455C576.814 469.773 576.193 466.485 576.193 462.591C576.193 458.591 576.837 455.265 578.125 452.614C579.413 449.947 581.125 447.955 583.261 446.636C585.413 445.303 587.769 444.636 590.33 444.636C592.284 444.636 593.913 444.97 595.216 445.636C596.534 446.288 597.595 447.106 598.398 448.091C599.216 449.061 599.837 450.015 600.261 450.955H600.557V433.455H610.216V480H600.67V474.409H600.261C599.807 475.379 599.163 476.341 598.33 477.295C597.511 478.235 596.443 479.015 595.125 479.636C593.822 480.258 592.231 480.568 590.352 480.568ZM593.42 472.864C594.981 472.864 596.299 472.439 597.375 471.591C598.466 470.727 599.299 469.523 599.875 467.977C600.466 466.432 600.761 464.621 600.761 462.545C600.761 460.47 600.473 458.667 599.898 457.136C599.322 455.606 598.489 454.424 597.398 453.591C596.307 452.758 594.981 452.341 593.42 452.341C591.83 452.341 590.489 452.773 589.398 453.636C588.307 454.5 587.481 455.697 586.92 457.227C586.36 458.758 586.08 460.53 586.08 462.545C586.08 464.576 586.36 466.371 586.92 467.932C587.496 469.477 588.322 470.689 589.398 471.568C590.489 472.432 591.83 472.864 593.42 472.864ZM618.176 480V445.091H627.858V480H618.176ZM623.04 440.591C621.6 440.591 620.366 440.114 619.335 439.159C618.32 438.189 617.812 437.03 617.812 435.682C617.812 434.348 618.32 433.205 619.335 432.25C620.366 431.28 621.6 430.795 623.04 430.795C624.479 430.795 625.706 431.28 626.722 432.25C627.752 433.205 628.267 434.348 628.267 435.682C628.267 437.03 627.752 438.189 626.722 439.159C625.706 440.114 624.479 440.591 623.04 440.591ZM643.705 445.091L650.114 457.295L656.682 445.091H666.614L656.5 462.545L666.886 480H657L650.114 467.932L643.341 480H633.341L643.705 462.545L633.705 445.091H643.705Z" fill="#45CFDD"/>
<defs>
<filter id="filter0_d_191_327" x="150" y="160" width="660" height="660" filterUnits="userSpaceOnUse" color-interpolation-filters="sRGB">
<feFlood flood-opacity="0" result="BackgroundImageFix"/>
<feColorMatrix in="SourceAlpha" type="matrix" values="0 0 0 0 0 0 0 0 0 0 0 0 0 0 0 0 0 0 127 0" result="hardAlpha"/>
<feOffset dy="10"/>
<feGaussianBlur stdDeviation="5"/>
<feComposite in2="hardAlpha" operator="out"/>
<feColorMatrix type="matrix" values="0 0 0 0 0.8 0 0 0 0 0.760784 0 0 0 0 0.941176 0 0 0 1 0"/>
<feBlend mode="normal" in2="BackgroundImageFix" result="effect1_dropShadow_191_327"/>
<feBlend mode="normal" in="SourceGraphic" in2="effect1_dropShadow_191_327" result="shape"/>
</filter>
</defs>
</svg>
