<svg width="98" height="96" viewBox="0 0 98 96" fill="none" xmlns="http://www.w3.org/2000/svg">
<g clip-path="url(#clip0_44_3170)">
<rect width="98" height="96" rx="48" fill="url(#paint0_linear_44_3170)"/>
<path d="M59.4533 56.32V63.52C59.4533 64.9066 38.5466 64.4403 38.5466 62.441C38.5466 60.5594 38.5858 52.0326 38.5466 43.2602C33.8649 37.3155 33.8649 33.6 37.5666 29.76C41.2684 25.92 67.62 24 67.62 24C67.62 24 69.597 42.6272 69.9067 47.68C70.0311 49.712 71.3767 56.32 66.15 56.32H59.4533Z" fill="url(#paint1_linear_44_3170)"/>
<g style="mix-blend-mode:multiply">
<path d="M59.4455 55.7048C55.1894 55.2499 51.0762 53.9338 47.3666 51.8398C47.3666 51.8398 49.98 57.9198 59.4455 59.5698V55.7048Z" fill="#FFD7B8"/>
</g>
<path d="M83.3 77.8582C85.3732 81.9877 87.0066 88.8143 88.2 98.3382H9.79999C10.9938 88.8133 12.6272 81.9866 14.7 77.8582C16.7658 73.743 35.9333 65.8233 35.9333 65.8233C35.9333 65.8233 36.3149 62.2031 37.24 61.6841C38.1651 61.165 59.6581 61.1654 60.76 61.6841C61.8618 62.2028 62.0667 65.8214 62.0667 65.8214C62.0667 65.8214 81.2381 73.7516 83.3 77.8582Z" fill="url(#paint2_linear_44_3170)"/>
<path d="M42.7999 33.666C41.7611 32.7921 40.4988 32.2036 38.7146 33.1117C34.4846 35.2631 37.2919 43.5633 42.0257 43.4013C43.659 43.3457 42.9103 46.5341 38.5467 48.6401C38.5467 45.2801 33.32 36.9601 32.8627 29.385C27.6033 27.4666 28.91 19.7908 32.5206 19.7908C31.9444 12.7537 43.4467 9.11909 47.9004 13.1572C52.43 7.83909 63.8633 10.5591 64.5536 15.1729C72.4154 11.0618 77.5833 22.8791 70.2219 27.4666C67.1927 29.3546 60.1067 30.073 49.8777 30.073C44.9692 30.073 47.792 41.3274 49.3267 44.9601C51.2867 49.6001 62.23 50.2401 65.66 49.7601C68.3387 49.3853 69.7433 48.3201 69.9067 47.6801C72.3567 54.0801 69.2533 57.9201 64.3533 57.9201C56.0233 57.9201 47.6933 55.5201 46.3867 49.6001C45.3465 44.8887 45.4037 37.2852 42.7999 33.666Z" fill="url(#paint3_linear_44_3170)"/>
</g>
<defs>
<linearGradient id="paint0_linear_44_3170" x1="49" y1="0" x2="49" y2="96" gradientUnits="userSpaceOnUse">
<stop stop-color="#100014"/>
<stop offset="1" stop-color="#853644"/>
</linearGradient>
<linearGradient id="paint1_linear_44_3170" x1="52.5271" y1="24" x2="52.5271" y2="64.3158" gradientUnits="userSpaceOnUse">
<stop stop-color="#FFD4B3"/>
<stop offset="1" stop-color="#FFDCC2"/>
</linearGradient>
<linearGradient id="paint2_linear_44_3170" x1="49" y1="61.2949" x2="49" y2="98.3382" gradientUnits="userSpaceOnUse">
<stop stop-color="#546CEB"/>
<stop offset="1" stop-color="#556BE5"/>
</linearGradient>
<linearGradient id="paint3_linear_44_3170" x1="51.5638" y1="57.9201" x2="51.5638" y2="10.2383" gradientUnits="userSpaceOnUse">
<stop stop-color="#E67240"/>
<stop offset="0.656777" stop-color="#914EE6"/>
</linearGradient>
<clipPath id="clip0_44_3170">
<rect width="98" height="96" rx="48" fill="white"/>
</clipPath>
</defs>
</svg>
