<svg width="49" height="45" viewBox="0 0 49 45" fill="none" xmlns="http://www.w3.org/2000/svg">
<path d="M41.8541 3.75H7.14581C6.33359 3.75 5.55463 4.04632 4.9803 4.57376C4.40597 5.10121 4.08331 5.81658 4.08331 6.5625V38.4375C4.08331 39.1834 4.40597 39.8988 4.9803 40.4262C5.55463 40.9537 6.33359 41.25 7.14581 41.25H41.8541C42.6664 41.25 43.4453 40.9537 44.0197 40.4262C44.594 39.8988 44.9166 39.1834 44.9166 38.4375V6.5625C44.9166 5.81658 44.594 5.10121 44.0197 4.57376C43.4453 4.04632 42.6664 3.75 41.8541 3.75Z" stroke="#F8F8F8" stroke-width="4" stroke-linejoin="round"/>
<path d="M12.25 17.8633C15.6443 14.1133 19.7276 12.2383 24.5 12.2383C29.2724 12.2383 33.3557 14.1133 36.75 17.8633" stroke="#F8F8F8" stroke-width="4" stroke-linecap="round"/>
<path d="M24.5 29.0625C25.3122 29.0625 26.0912 28.7662 26.6655 28.2387C27.2398 27.7113 27.5625 26.9959 27.5625 26.25C27.5625 25.5041 27.2398 24.7887 26.6655 24.2613C26.0912 23.7338 25.3122 23.4375 24.5 23.4375C23.6878 23.4375 22.9088 23.7338 22.3345 24.2613C21.7602 24.7887 21.4375 25.5041 21.4375 26.25C21.4375 26.9959 21.7602 27.7113 22.3345 28.2387C22.9088 28.7662 23.6878 29.0625 24.5 29.0625Z" fill="#F8F8F8"/>
<path d="M19.3958 19.6875L24.5081 26.25" stroke="#F8F8F8" stroke-width="4" stroke-linecap="round"/>
</svg>
